#N canvas -5 23 1017 506 10;
#X obj 516 437 dac~, f 5;
#X obj 532 31 netreceive -u -b 8000;
#X obj 532 62 unpackOSC;
#N canvas 169 354 1333 611 sensor~ 1;
#X obj 102 25 inlet sensordata;
#X obj 351 395 outlet~ audio;
#N canvas 426 164 1424 682 sensormap 0;
#X obj 434 8 inlet sensorparams;
#X text 563 6 PARAM #1 (INT - RANGE 0 to 9) : sensor num;
#X text 562 24 PARAM #2 (INT - RANGE 0 to 2) : sensor status;
#X obj 251 118 outlet partial0;
#X obj 358 118 outlet partial1;
#X obj 458 118 outlet partial2;
#X obj 563 118 outlet partial3;
#X obj 663 118 outlet partial4;
#X obj 769 118 outlet partial5;
#X obj 435 47 route 0 1 2 3 4 5;
#X connect 0 0 9 0;
#X connect 9 0 3 0;
#X connect 9 1 4 0;
#X connect 9 2 5 0;
#X connect 9 3 6 0;
#X connect 9 4 7 0;
#X connect 9 5 8 0;
#X restore 94 130 pd sensormap, f 33;
#N canvas 145 23 1096 724 partialmixer~ 0;
#X obj 367 287 outlet~ audio;
#X obj 144 45 inlet~ partial1;
#X obj 38 45 inlet~ partial0;
#X obj 252 45 inlet~ partial2;
#X obj 357 45 inlet~ partial3;
#X obj 458 45 inlet~ partial4;
#X obj 559 45 inlet~ partial5;
#X obj 39 87 *~ 0.1;
#X obj 146 87 *~ 0.1;
#X obj 256 87 *~ 0.1;
#X obj 357 87 *~ 0.1;
#X obj 459 87 *~ 0.1;
#X obj 566 87 *~ 0.1;
#X obj 383 184 throw~ allpartials;
#X obj 374 228 catch~ allpartials, f 70;
#X connect 1 0 8 0;
#X connect 2 0 7 0;
#X connect 3 0 9 0;
#X connect 4 0 10 0;
#X connect 5 0 11 0;
#X connect 6 0 12 0;
#X connect 7 0 13 0;
#X connect 8 0 13 0;
#X connect 9 0 13 0;
#X connect 10 0 13 0;
#X connect 11 0 13 0;
#X connect 12 0 13 0;
#X connect 14 0 0 0;
#X restore 355 343 pd partialmixer~;
#N canvas 600 338 917 743 partial~ 0;
#X obj 116 66 inlet frequency;
#X obj 153 446 outlet~ signal;
#X msg 216 319 1 1000;
#X obj 181 407 *~;
#X msg 272 319 0 1000;
#X obj 217 373 line~ 0;
#X obj 124 319 osc~;
#X text 412 62 PARAM #1 (INT - RANGE 0 to 9) : sensor num;
#X text 411 80 PARAM #2 (INT - RANGE 0 to 2) : sensor status;
#X text 293 154 TODO - figure out how to incorporate a more complex
version of the logic gate;
#X obj 283 64 inlet sensorstatus;
#X connect 0 0 6 0;
#X connect 2 0 5 0;
#X connect 3 0 1 0;
#X connect 4 0 5 0;
#X connect 5 0 3 1;
#X connect 6 0 3 0;
#X restore 254 262 pd partial~;
#X obj 377 95 mtof;
#X obj 491 94 mtof;
#X obj 585 92 mtof;
#X obj 665 91 mtof;
#X obj 743 93 mtof;
#X obj 828 93 mtof;
#X msg 375 68 42;
#X msg 491 64 46;
#X msg 582 60 52;
#X msg 661 60 57;
#X msg 739 58 60;
#X msg 822 58 66;
#X obj 631 18 loadbang;
#N canvas 865 23 995 735 sensorstatus 0;
#X obj 37 22 inlet sensorparams;
#X obj 435 539 outlet isplaying;
#X obj 567 539 outlet notplaying;
#X obj 193 232 tabwrite sensors;
#N canvas 0 22 450 278 (subpatch) 0;
#X array sensors 6 float 3;
#A 0 0 0 0 0 0 0;
#X coords 0 0 6 2 200 140 1 0 0;
#X restore 191 265 graph;
#X obj 275 143 unpack f f;
#X obj 136 103 trigger bang bang bang list;
#X obj 198 197 float;
#X obj 249 197 float;
#X text 160 54 order of operations is really important here.;
#X text 161 70 numbers need to be set and then banged in reverse order
from osc message to reflect how it is stored in array;
#X obj 558 19 loadbang;
#X msg 561 93 \; sensors 0 0 0 0 0 0 0 0 0 0 0;
#X obj 486 298 unpack f f;
#X obj 447 263 tabminmax sensors;
#X obj 623 367 == 0;
#X obj 607 431 spigot;
#X obj 602 473 bng 25 250 50 0 empty empty empty 17 7 0 10 -262144
-1 -1;
#X obj 531 431 spigot;
#X obj 415 216 t b b;
#X obj 462 356 t b b;
#X obj 532 475 bng 25 250 50 0 empty empty empty 17 7 0 10 -262144
-1 -1;
#X obj 539 367 >= 1;
#X text 74 414 sensors table is 6 wide (for the six sensors) by 3 deep
(0 \, 1 \, or 2 for the state of the sensor);
#X connect 0 0 6 0;
#X connect 5 0 7 1;
#X connect 5 1 8 1;
#X connect 6 0 19 0;
#X connect 6 1 8 0;
#X connect 6 2 7 0;
#X connect 6 3 5 0;
#X connect 7 0 3 1;
#X connect 8 0 3 0;
#X connect 11 0 12 0;
#X connect 13 0 15 0;
#X connect 13 0 22 0;
#X connect 14 1 13 0;
#X connect 15 0 16 1;
#X connect 16 0 17 0;
#X connect 17 0 2 0;
#X connect 18 0 21 0;
#X connect 19 0 20 0;
#X connect 19 1 14 0;
#X connect 20 0 16 0;
#X connect 20 1 18 0;
#X connect 21 0 1 0;
#X connect 22 0 18 1;
#X restore 895 352 pd sensorstatus;
#X obj 102 58 send sensorparams;
#X obj 95 97 receive sensorparams;
#X obj 896 320 receive sensorparams;
#X obj 854 396 outlet isplaying;
#X obj 974 397 outlet notplaying;
#N canvas 1039 341 917 743 partial~ 0;
#X obj 116 66 inlet frequency;
#X obj 161 640 outlet~ signal;
#X msg 224 513 1 1000;
#X obj 189 601 *~;
#X msg 280 513 0 1000;
#X obj 225 567 line~ 0;
#X obj 132 513 osc~;
#X text 412 62 PARAM #1 (INT - RANGE 0 to 9) : sensor num;
#X text 411 80 PARAM #2 (INT - RANGE 0 to 2) : sensor status;
#X text 293 154 TODO - figure out how to incorporate a more complex
version of the logic gate;
#X obj 283 64 inlet sensorstatus;
#X connect 0 0 6 0;
#X connect 2 0 5 0;
#X connect 3 0 1 0;
#X connect 4 0 5 0;
#X connect 5 0 3 1;
#X connect 6 0 3 0;
#X restore 348 262 pd partial~;
#N canvas 1039 341 917 743 partial~ 0;
#X obj 116 66 inlet frequency;
#X obj 161 640 outlet~ signal;
#X msg 224 513 1 1000;
#X obj 189 601 *~;
#X msg 280 513 0 1000;
#X obj 225 567 line~ 0;
#X obj 132 513 osc~;
#X text 412 62 PARAM #1 (INT - RANGE 0 to 9) : sensor num;
#X text 411 80 PARAM #2 (INT - RANGE 0 to 2) : sensor status;
#X text 293 154 TODO - figure out how to incorporate a more complex
version of the logic gate;
#X obj 283 64 inlet sensorstatus;
#X connect 0 0 6 0;
#X connect 2 0 5 0;
#X connect 3 0 1 0;
#X connect 4 0 5 0;
#X connect 5 0 3 1;
#X connect 6 0 3 0;
#X restore 436 262 pd partial~;
#N canvas 1039 341 917 743 partial~ 0;
#X obj 116 66 inlet frequency;
#X obj 161 640 outlet~ signal;
#X msg 224 513 1 1000;
#X obj 189 601 *~;
#X msg 280 513 0 1000;
#X obj 225 567 line~ 0;
#X obj 132 513 osc~;
#X text 412 62 PARAM #1 (INT - RANGE 0 to 9) : sensor num;
#X text 411 80 PARAM #2 (INT - RANGE 0 to 2) : sensor status;
#X text 293 154 TODO - figure out how to incorporate a more complex
version of the logic gate;
#X obj 283 64 inlet sensorstatus;
#X connect 0 0 6 0;
#X connect 2 0 5 0;
#X connect 3 0 1 0;
#X connect 4 0 5 0;
#X connect 5 0 3 1;
#X connect 6 0 3 0;
#X restore 528 263 pd partial~;
#N canvas 1039 341 917 743 partial~ 0;
#X obj 116 66 inlet frequency;
#X obj 161 640 outlet~ signal;
#X msg 224 513 1 1000;
#X obj 189 601 *~;
#X msg 280 513 0 1000;
#X obj 225 567 line~ 0;
#X obj 132 513 osc~;
#X text 412 62 PARAM #1 (INT - RANGE 0 to 9) : sensor num;
#X text 411 80 PARAM #2 (INT - RANGE 0 to 2) : sensor status;
#X text 293 154 TODO - figure out how to incorporate a more complex
version of the logic gate;
#X obj 283 64 inlet sensorstatus;
#X connect 0 0 6 0;
#X connect 2 0 5 0;
#X connect 3 0 1 0;
#X connect 4 0 5 0;
#X connect 5 0 3 1;
#X connect 6 0 3 0;
#X restore 621 264 pd partial~;
#N canvas 1039 341 917 743 partial~ 0;
#X obj 116 66 inlet frequency;
#X obj 161 640 outlet~ signal;
#X msg 224 513 1 1000;
#X obj 189 601 *~;
#X msg 280 513 0 1000;
#X obj 225 567 line~ 0;
#X obj 132 513 osc~;
#X text 412 62 PARAM #1 (INT - RANGE 0 to 9) : sensor num;
#X text 411 80 PARAM #2 (INT - RANGE 0 to 2) : sensor status;
#X text 293 154 TODO - figure out how to incorporate a more complex
version of the logic gate;
#X obj 283 64 inlet sensorstatus;
#X connect 0 0 6 0;
#X connect 2 0 5 0;
#X connect 3 0 1 0;
#X connect 4 0 5 0;
#X connect 5 0 3 1;
#X connect 6 0 3 0;
#X restore 709 263 pd partial~;
#X connect 0 0 19 0;
#X connect 2 0 4 1;
#X connect 2 1 24 1;
#X connect 2 2 25 1;
#X connect 2 3 26 1;
#X connect 2 4 27 1;
#X connect 2 5 28 1;
#X connect 3 0 1 0;
#X connect 4 0 3 0;
#X connect 5 0 4 0;
#X connect 6 0 24 0;
#X connect 7 0 25 0;
#X connect 8 0 26 0;
#X connect 9 0 27 0;
#X connect 10 0 28 0;
#X connect 11 0 5 0;
#X connect 12 0 6 0;
#X connect 13 0 7 0;
#X connect 14 0 8 0;
#X connect 15 0 9 0;
#X connect 16 0 10 0;
#X connect 17 0 11 0;
#X connect 17 0 12 0;
#X connect 17 0 13 0;
#X connect 17 0 14 0;
#X connect 17 0 15 0;
#X connect 17 0 16 0;
#X connect 18 0 22 0;
#X connect 18 1 23 0;
#X connect 20 0 2 0;
#X connect 21 0 18 0;
#X connect 24 0 3 1;
#X connect 25 0 3 2;
#X connect 26 0 3 3;
#X connect 27 0 3 4;
#X connect 28 0 3 5;
#X restore 654 198 pd sensor~;
#X obj 545 91 print unpacked;
#N canvas 561 23 450 300 volume~ 0;
#X obj 41 116 *~ 1;
#X obj 153 30 inlet volumelevel;
#X obj 48 215 outlet~ audioleft;
#X obj 168 214 outlet~ audioright, f 42;
#X obj 44 31 inlet~ audioin;
#X text 91 116 THIS IS CURRENTLY MONO;
#X connect 0 0 2 0;
#X connect 0 0 3 0;
#X connect 1 0 0 1;
#X connect 4 0 0 0;
#X restore 503 398 pd volume~;
#N canvas 146 23 1251 998 ambient~ 0;
#X obj 107 221 bng 40 250 50 0 empty empty empty 17 7 0 10 -262144
-1 -1;
#X obj 220 553 line~;
#X obj 258 602 *~;
#X obj 503 850 outlet~ audio;
#X msg 39 428 1 1200;
#X obj 89 386 delay 1200;
#X obj 43 20 inlet startambient;
#X obj 326 17 inlet stopambient;
#X msg 232 113 stop;
#X obj 187 160 metro 6000;
#X obj 503 823 *~ 0.65;
#X text 567 824 ambient volume should be a little lower than other
sounds;
#X text 158 299 fade out sound;
#X text 230 134 stop repeating sound;
#X msg 182 347 0 400;
#X obj 314 72 t b b;
#X obj 197 318 receive fadeout;
#X obj 374 112 send fadeout;
#X obj 494 20 inlet hasproximity;
#X msg 97 427 0 1400;
#X text 160 220 softer ambient tone;
#X obj 636 222 bng 40 250 50 0 empty empty empty 17 7 0 10 -262144
-1 -1;
#X text 690 221 more intense proximity tone;
#X obj 512 147 nbx 5 14 -1e+37 1e+37 0 0 empty empty empty 0 -8 0 10
-262144 -1 -1 0 256;
#N canvas 78 754 449 259 gate 0;
#X obj 87 26 inlet bang;
#X obj 186 26 inlet num;
#X obj 97 68 t b b;
#X obj 251 68 == 0;
#X obj 226 122 spigot;
#X obj 226 152 bng 25 250 50 0 empty empty empty 17 7 0 10 -262144
-1 -1;
#X obj 167 68 == 1;
#X obj 91 122 spigot;
#X obj 91 152 bng 25 250 50 0 empty empty empty 17 7 0 10 -262144 -1
-1;
#X obj 194 218 outlet istoggled;
#X obj 68 217 outlet nottoggled;
#X connect 0 0 2 0;
#X connect 1 0 6 0;
#X connect 1 0 3 0;
#X connect 2 0 4 0;
#X connect 2 1 7 0;
#X connect 3 0 4 1;
#X connect 4 0 5 0;
#X connect 5 0 10 0;
#X connect 6 0 7 1;
#X connect 7 0 8 0;
#X connect 8 0 9 0;
#X restore 635 70 pd gate;
#X obj 635 103 bng 25 250 50 0 empty empty empty 17 7 0 10 -262144
-1 -1;
#X obj 674 103 bng 25 250 50 0 empty empty empty 17 7 0 10 -262144
-1 -1;
#X obj 702 409 line~;
#X msg 631 342 1 1200;
#X obj 685 304 delay 1200;
#X text 766 329 fade out sound;
#X msg 769 377 0 400;
#X msg 693 345 0 1400;
#X obj 783 568 *~;
#X obj 506 779 +~;
#X obj 770 349 receive pfadeout;
#N canvas 762 466 895 694 softoscbank~ 0;
#X obj 249 147 mtof;
#X obj 316 147 mtof;
#X msg 316 120 36;
#X obj 385 147 mtof;
#X msg 249 120 54;
#X msg 385 120 56;
#X obj 316 201 *~ 0.7;
#X obj 249 201 *~ 0.15;
#X obj 385 201 *~ 0.15;
#X obj 249 174 osc~;
#X obj 316 174 osc~;
#X obj 385 174 osc~;
#X text 432 122 whole tone scale, f 20;
#X obj 303 37 inlet bang;
#X obj 312 300 outlet~ oscbank;
#X connect 0 0 9 0;
#X connect 1 0 10 0;
#X connect 2 0 1 0;
#X connect 3 0 11 0;
#X connect 4 0 0 0;
#X connect 5 0 3 0;
#X connect 6 0 14 0;
#X connect 7 0 14 0;
#X connect 8 0 14 0;
#X connect 9 0 7 0;
#X connect 10 0 6 0;
#X connect 11 0 8 0;
#X connect 13 0 4 0;
#X connect 13 0 2 0;
#X connect 13 0 5 0;
#X restore 317 319 pd softoscbank~;
#N canvas 114 98 1716 953 intenseoscbank~ 0;
#X obj 200 25 inlet bang;
#X obj 227 416 outlet~ oscbank;
#X text 476 143 whole tone scale, f 20;
#X obj 153 170 mtof;
#X obj 220 170 mtof;
#X msg 220 143 36;
#X obj 289 170 mtof;
#X msg 153 143 54;
#X msg 289 143 56;
#X obj 153 197 osc~;
#X obj 220 197 osc~;
#X obj 289 197 osc~;
#X obj 355 170 mtof;
#X obj 421 170 mtof;
#X obj 355 197 osc~;
#X obj 421 197 osc~;
#X msg 355 143 72;
#X msg 421 143 74;
#X obj 355 224 *~ 0.1;
#X obj 422 224 *~ 0.1;
#X obj 153 224 *~ 0.4;
#X obj 289 224 *~ 0.2;
#X obj 221 223 *~ 0.2;
#X connect 0 0 7 0;
#X connect 0 0 5 0;
#X connect 0 0 8 0;
#X connect 0 0 16 0;
#X connect 0 0 17 0;
#X connect 3 0 9 0;
#X connect 4 0 10 0;
#X connect 5 0 4 0;
#X connect 6 0 11 0;
#X connect 7 0 3 0;
#X connect 8 0 6 0;
#X connect 9 0 20 0;
#X connect 10 0 22 0;
#X connect 11 0 21 0;
#X connect 12 0 14 0;
#X connect 13 0 15 0;
#X connect 14 0 18 0;
#X connect 15 0 19 0;
#X connect 16 0 12 0;
#X connect 17 0 13 0;
#X connect 18 0 1 0;
#X connect 19 0 1 0;
#X connect 20 0 1 0;
#X connect 21 0 1 0;
#X connect 22 0 1 0;
#X restore 946 316 pd intenseoscbank~;
#X obj 631 667 *~;
#X obj 455 304 nbx 5 14 -1e+37 1e+37 0 0 empty empty empty 0 -8 0 10
-262144 -1 -1 1 256;
#N canvas 1310 23 552 706 invert 0;
#X obj 146 26 inlet number;
#X obj 150 178 outlet inverted;
#X obj 163 67 - 1;
#X obj 150 102 * -1;
#X obj 147 133 abs;
#X connect 0 0 2 0;
#X connect 2 0 3 0;
#X connect 3 0 4 0;
#X connect 4 0 1 0;
#X restore 466 245 pd invert;
#X obj 381 668 *~;
#X obj 528 67 loadbang;
#X msg 522 98 0;
#X connect 0 0 4 0;
#X connect 0 0 5 0;
#X connect 0 0 36 0;
#X connect 1 0 2 0;
#X connect 2 0 41 0;
#X connect 4 0 1 0;
#X connect 5 0 19 0;
#X connect 6 0 9 0;
#X connect 7 0 15 0;
#X connect 8 0 9 0;
#X connect 9 0 0 0;
#X connect 9 0 21 0;
#X connect 10 0 3 0;
#X connect 14 0 1 0;
#X connect 15 0 8 0;
#X connect 15 1 17 0;
#X connect 16 0 14 0;
#X connect 18 0 23 0;
#X connect 18 0 24 0;
#X connect 18 0 24 1;
#X connect 19 0 1 0;
#X connect 21 0 29 0;
#X connect 21 0 28 0;
#X connect 21 0 37 0;
#X connect 23 0 38 0;
#X connect 23 0 40 0;
#X connect 24 0 25 0;
#X connect 24 1 26 0;
#X connect 27 0 33 0;
#X connect 28 0 27 0;
#X connect 29 0 32 0;
#X connect 31 0 27 0;
#X connect 32 0 27 0;
#X connect 33 0 38 1;
#X connect 34 0 10 0;
#X connect 35 0 31 0;
#X connect 36 0 2 1;
#X connect 37 0 33 1;
#X connect 38 0 34 1;
#X connect 39 0 41 1;
#X connect 40 0 39 0;
#X connect 41 0 34 0;
#X connect 42 0 43 0;
#X connect 43 0 23 0;
#X restore 354 319 pd ambient~;
#X obj 173 53 loadbang;
#X obj 320 239 bng 25 250 50 0 empty empty empty 17 7 0 10 -262144
-1 -1;
#X obj 249 239 bng 25 250 50 0 empty empty empty 17 7 0 10 -262144
-1 -1;
#X text 351 238 stop ambience;
#X text 157 238 start ambience;
#X obj 685 254 send stopambient;
#X obj 712 228 send startambient;
#X obj 314 86 receive stopambient;
#X obj 243 54 receive startambient;
#X obj 248 175 delay;
#X msg 248 150 6000;
#X obj 249 201 t b;
#X obj 778 154 send volumenum;
#X obj 560 367 receive volumenum;
#X obj 532 119 routeOSC /iceburg/proximity /iceburg/sensor /iceburg/volume
, f 62;
#X text 717 420 Concept and Execution by Nathan Koch;
#X text 716 441 Dependencies: osc zexy;
#X connect 1 0 2 0;
#X connect 2 0 4 0;
#X connect 2 0 21 0;
#X connect 3 0 5 0;
#X connect 3 1 12 0;
#X connect 3 2 13 0;
#X connect 5 0 0 0;
#X connect 5 1 0 1;
#X connect 6 0 5 0;
#X connect 7 0 17 0;
#X connect 8 0 6 1;
#X connect 9 0 6 0;
#X connect 14 0 8 0;
#X connect 15 0 17 0;
#X connect 16 0 18 0;
#X connect 17 0 16 0;
#X connect 18 0 9 0;
#X connect 20 0 5 1;
#X connect 21 0 6 2;
#X connect 21 1 3 0;
#X connect 21 2 19 0;
#X coords 0 0 1 1 85 60 0;
