#N canvas 138 234 1214 790 10;
#X obj 449 574 dac~, f 5;
#X obj 342 28 netreceive -u -b 8000;
#X obj 342 59 unpackOSC;
#N canvas 14 49 1258 752 sensor~ 0;
#X obj 102 25 inlet sensordata;
#X obj 310 692 outlet~ audio;
#N canvas 29 252 1271 411 sensormap 0;
#X obj 66 115 select 0 1 2 3 4 5 6 7 8 9, f 71;
#N canvas 0 22 737 553 statusgate 0;
#X obj 98 215 outlet end;
#X obj 8 215 outlet start;
#X obj 17 18 inlet trigger;
#X obj 25 134 spigot;
#X floatatom 87 74 5 0 0 0 - - -, f 5;
#X floatatom 131 74 5 0 0 0 - - -, f 5;
#X obj 134 51 == 0;
#X obj 115 134 spigot;
#X obj 25 55 bng 20 250 50 0 empty empty empty 17 7 0 10 -262144 -1
-1;
#X obj 123 18 inlet status;
#X connect 2 0 8 0;
#X connect 3 0 1 0;
#X connect 4 0 3 1;
#X connect 5 0 7 1;
#X connect 6 0 5 0;
#X connect 7 0 0 0;
#X connect 8 0 3 0;
#X connect 8 0 7 0;
#X connect 9 0 6 0;
#X connect 9 0 4 0;
#X restore 110 226 pd statusgate;
#N canvas 0 22 737 553 statusgate 0;
#X obj 98 215 outlet end;
#X obj 8 215 outlet start;
#X obj 17 18 inlet trigger;
#X obj 25 134 spigot;
#X floatatom 87 74 5 0 0 0 - - -, f 5;
#X floatatom 131 74 5 0 0 0 - - -, f 5;
#X obj 134 51 == 0;
#X obj 115 134 spigot;
#X obj 25 55 bng 20 250 50 0 empty empty empty 17 7 0 10 -262144 -1
-1;
#X obj 123 18 inlet status;
#X connect 2 0 8 0;
#X connect 3 0 1 0;
#X connect 4 0 3 1;
#X connect 5 0 7 1;
#X connect 6 0 5 0;
#X connect 7 0 0 0;
#X connect 8 0 3 0;
#X connect 8 0 7 0;
#X connect 9 0 6 0;
#X connect 9 0 4 0;
#X restore 215 226 pd statusgate;
#N canvas 0 22 737 553 statusgate 0;
#X obj 98 215 outlet end;
#X obj 8 215 outlet start;
#X obj 17 18 inlet trigger;
#X obj 25 134 spigot;
#X floatatom 87 74 5 0 0 0 - - -, f 5;
#X floatatom 131 74 5 0 0 0 - - -, f 5;
#X obj 134 51 == 0;
#X obj 115 134 spigot;
#X obj 25 55 bng 20 250 50 0 empty empty empty 17 7 0 10 -262144 -1
-1;
#X obj 123 18 inlet status;
#X connect 2 0 8 0;
#X connect 3 0 1 0;
#X connect 4 0 3 1;
#X connect 5 0 7 1;
#X connect 6 0 5 0;
#X connect 7 0 0 0;
#X connect 8 0 3 0;
#X connect 8 0 7 0;
#X connect 9 0 6 0;
#X connect 9 0 4 0;
#X restore 317 226 pd statusgate;
#N canvas 0 22 737 553 statusgate 0;
#X obj 98 215 outlet end;
#X obj 8 215 outlet start;
#X obj 17 18 inlet trigger;
#X obj 25 134 spigot;
#X floatatom 87 74 5 0 0 0 - - -, f 5;
#X floatatom 131 74 5 0 0 0 - - -, f 5;
#X obj 134 51 == 0;
#X obj 115 134 spigot;
#X obj 25 55 bng 20 250 50 0 empty empty empty 17 7 0 10 -262144 -1
-1;
#X obj 123 18 inlet status;
#X connect 2 0 8 0;
#X connect 3 0 1 0;
#X connect 4 0 3 1;
#X connect 5 0 7 1;
#X connect 6 0 5 0;
#X connect 7 0 0 0;
#X connect 8 0 3 0;
#X connect 8 0 7 0;
#X connect 9 0 6 0;
#X connect 9 0 4 0;
#X restore 412 226 pd statusgate;
#N canvas 0 22 737 553 statusgate 0;
#X obj 98 215 outlet end;
#X obj 8 215 outlet start;
#X obj 17 18 inlet trigger;
#X obj 25 134 spigot;
#X floatatom 87 74 5 0 0 0 - - -, f 5;
#X floatatom 131 74 5 0 0 0 - - -, f 5;
#X obj 134 51 == 0;
#X obj 115 134 spigot;
#X obj 25 55 bng 20 250 50 0 empty empty empty 17 7 0 10 -262144 -1
-1;
#X obj 123 18 inlet status;
#X connect 2 0 8 0;
#X connect 3 0 1 0;
#X connect 4 0 3 1;
#X connect 5 0 7 1;
#X connect 6 0 5 0;
#X connect 7 0 0 0;
#X connect 8 0 3 0;
#X connect 8 0 7 0;
#X connect 9 0 6 0;
#X connect 9 0 4 0;
#X restore 501 226 pd statusgate;
#N canvas 0 22 737 553 statusgate 0;
#X obj 98 215 outlet end;
#X obj 8 215 outlet start;
#X obj 17 18 inlet trigger;
#X obj 25 134 spigot;
#X floatatom 87 74 5 0 0 0 - - -, f 5;
#X floatatom 131 74 5 0 0 0 - - -, f 5;
#X obj 134 51 == 0;
#X obj 115 134 spigot;
#X obj 25 55 bng 20 250 50 0 empty empty empty 17 7 0 10 -262144 -1
-1;
#X obj 123 18 inlet status;
#X connect 2 0 8 0;
#X connect 3 0 1 0;
#X connect 4 0 3 1;
#X connect 5 0 7 1;
#X connect 6 0 5 0;
#X connect 7 0 0 0;
#X connect 8 0 3 0;
#X connect 8 0 7 0;
#X connect 9 0 6 0;
#X connect 9 0 4 0;
#X restore 606 226 pd statusgate;
#N canvas 0 22 737 553 statusgate 0;
#X obj 98 215 outlet end;
#X obj 8 215 outlet start;
#X obj 17 18 inlet trigger;
#X obj 25 134 spigot;
#X floatatom 87 74 5 0 0 0 - - -, f 5;
#X floatatom 131 74 5 0 0 0 - - -, f 5;
#X obj 134 51 == 0;
#X obj 115 134 spigot;
#X obj 25 55 bng 20 250 50 0 empty empty empty 17 7 0 10 -262144 -1
-1;
#X obj 123 18 inlet status;
#X connect 2 0 8 0;
#X connect 3 0 1 0;
#X connect 4 0 3 1;
#X connect 5 0 7 1;
#X connect 6 0 5 0;
#X connect 7 0 0 0;
#X connect 8 0 3 0;
#X connect 8 0 7 0;
#X connect 9 0 6 0;
#X connect 9 0 4 0;
#X restore 708 226 pd statusgate;
#N canvas 0 22 737 553 statusgate 0;
#X obj 98 215 outlet end;
#X obj 8 215 outlet start;
#X obj 17 18 inlet trigger;
#X obj 25 134 spigot;
#X floatatom 87 74 5 0 0 0 - - -, f 5;
#X floatatom 131 74 5 0 0 0 - - -, f 5;
#X obj 134 51 == 0;
#X obj 115 134 spigot;
#X obj 25 55 bng 20 250 50 0 empty empty empty 17 7 0 10 -262144 -1
-1;
#X obj 123 18 inlet status;
#X connect 2 0 8 0;
#X connect 3 0 1 0;
#X connect 4 0 3 1;
#X connect 5 0 7 1;
#X connect 6 0 5 0;
#X connect 7 0 0 0;
#X connect 8 0 3 0;
#X connect 8 0 7 0;
#X connect 9 0 6 0;
#X connect 9 0 4 0;
#X restore 803 226 pd statusgate;
#N canvas 0 22 737 553 statusgate 0;
#X obj 98 215 outlet end;
#X obj 8 215 outlet start;
#X obj 17 18 inlet trigger;
#X obj 25 134 spigot;
#X floatatom 87 74 5 0 0 0 - - -, f 5;
#X floatatom 131 74 5 0 0 0 - - -, f 5;
#X obj 134 51 == 0;
#X obj 115 134 spigot;
#X obj 25 55 bng 20 250 50 0 empty empty empty 17 7 0 10 -262144 -1
-1;
#X obj 123 18 inlet status;
#X connect 2 0 8 0;
#X connect 3 0 1 0;
#X connect 4 0 3 1;
#X connect 5 0 7 1;
#X connect 6 0 5 0;
#X connect 7 0 0 0;
#X connect 8 0 3 0;
#X connect 8 0 7 0;
#X connect 9 0 6 0;
#X connect 9 0 4 0;
#X restore 898 226 pd statusgate;
#N canvas 0 22 737 553 statusgate 0;
#X obj 98 215 outlet end;
#X obj 8 215 outlet start;
#X obj 17 18 inlet trigger;
#X obj 25 134 spigot;
#X floatatom 87 74 5 0 0 0 - - -, f 5;
#X floatatom 131 74 5 0 0 0 - - -, f 5;
#X obj 134 51 == 0;
#X obj 115 134 spigot;
#X obj 25 55 bng 20 250 50 0 empty empty empty 17 7 0 10 -262144 -1
-1;
#X obj 123 18 inlet status;
#X connect 2 0 8 0;
#X connect 3 0 1 0;
#X connect 4 0 3 1;
#X connect 5 0 7 1;
#X connect 6 0 5 0;
#X connect 7 0 0 0;
#X connect 8 0 3 0;
#X connect 8 0 7 0;
#X connect 9 0 6 0;
#X connect 9 0 4 0;
#X restore 999 226 pd statusgate;
#X text 110 260 Sensor 0;
#X text 216 260 Sensor 1;
#X text 320 260 Sensor 2;
#X text 415 260 Sensor 3;
#X text 507 260 Sensor 4;
#X text 613 260 Sensor 5;
#X text 718 260 Sensor 6;
#X text 812 260 Sensor 7;
#X text 906 260 Sensor 8;
#X text 1006 260 Sensor 9;
#X obj 74 294 outlet 0on;
#X obj 134 331 outlet 0off;
#X obj 181 294 outlet 1on;
#X obj 241 331 outlet 1off;
#X obj 281 294 outlet 2on;
#X obj 346 331 outlet 2off;
#X obj 380 294 outlet 3on;
#X obj 439 331 outlet 3off;
#X obj 475 294 outlet 4on;
#X obj 541 331 outlet 4off;
#X obj 592 294 outlet 5on;
#X obj 647 331 outlet 5off;
#X obj 692 294 outlet 6on;
#X obj 758 331 outlet 6off;
#X obj 803 294 outlet 7on;
#X obj 875 331 outlet 7off;
#X obj 911 294 outlet 8on;
#X obj 983 331 outlet 8off;
#X obj 998 294 outlet 9on;
#X obj 1099 331 outlet 9off;
#X obj 627 115 trigger f f f f f f f f f f, f 89;
#X obj 434 8 inlet sensorparams;
#X obj 434 37 unpack f f;
#X obj 341 67 int;
#X obj 522 67 int;
#X text 562 24 PARAM #2 (INT - RANGE 0 to 1) : sensor status;
#X text 563 6 PARAM #1 (INT - RANGE 0 to 9) : sensor num;
#X text 556 66 (casting these to ints just in case of bad data), f
77;
#X connect 0 0 1 0;
#X connect 0 1 2 0;
#X connect 0 2 3 0;
#X connect 0 3 4 0;
#X connect 0 4 5 0;
#X connect 0 5 6 0;
#X connect 0 6 7 0;
#X connect 0 7 8 0;
#X connect 0 8 9 0;
#X connect 0 9 10 0;
#X connect 1 0 21 0;
#X connect 1 1 22 0;
#X connect 2 0 23 0;
#X connect 2 1 24 0;
#X connect 3 0 25 0;
#X connect 3 1 26 0;
#X connect 4 0 27 0;
#X connect 4 1 28 0;
#X connect 5 0 29 0;
#X connect 5 1 30 0;
#X connect 6 0 31 0;
#X connect 6 1 32 0;
#X connect 7 0 33 0;
#X connect 7 1 34 0;
#X connect 8 0 35 0;
#X connect 8 1 36 0;
#X connect 9 0 37 0;
#X connect 9 1 38 0;
#X connect 10 0 39 0;
#X connect 10 1 40 0;
#X connect 41 0 1 1;
#X connect 41 1 2 1;
#X connect 41 2 3 1;
#X connect 41 3 4 1;
#X connect 41 4 5 1;
#X connect 41 5 6 1;
#X connect 41 6 7 1;
#X connect 41 7 8 1;
#X connect 41 8 9 1;
#X connect 41 9 10 1;
#X connect 42 0 43 0;
#X connect 43 0 44 0;
#X connect 43 1 45 0;
#X connect 44 0 0 0;
#X connect 45 0 41 0;
#X restore 107 175 pd sensormap;
#N canvas 145 23 1096 724 partialmixer~ 0;
#X obj 367 287 outlet~ audio;
#X obj 144 45 inlet~ partial1;
#X obj 38 45 inlet~ partial0;
#X obj 252 45 inlet~ partial2;
#X obj 357 45 inlet~ partial3;
#X obj 458 45 inlet~ partial4;
#X obj 559 45 inlet~ partial5;
#X obj 663 45 inlet~ partial6;
#X obj 771 45 inlet~ partial7;
#X obj 879 45 inlet~ partial8;
#X obj 983 45 inlet~ partial9;
#X obj 39 87 *~ 0.1;
#X obj 146 87 *~ 0.1;
#X obj 256 87 *~ 0.1;
#X obj 357 87 *~ 0.1;
#X obj 459 87 *~ 0.1;
#X obj 566 87 *~ 0.1;
#X obj 676 87 *~ 0.1;
#X obj 777 87 *~ 0.1;
#X obj 880 87 *~ 0.1;
#X obj 981 87 *~ 0.1;
#X obj 383 184 throw~ allpartials;
#X obj 374 228 catch~ allpartials, f 70;
#X connect 1 0 12 0;
#X connect 2 0 11 0;
#X connect 3 0 13 0;
#X connect 4 0 14 0;
#X connect 5 0 15 0;
#X connect 6 0 16 0;
#X connect 7 0 17 0;
#X connect 8 0 18 0;
#X connect 9 0 19 0;
#X connect 10 0 20 0;
#X connect 11 0 21 0;
#X connect 12 0 21 0;
#X connect 13 0 21 0;
#X connect 14 0 21 0;
#X connect 15 0 21 0;
#X connect 16 0 21 0;
#X connect 17 0 21 0;
#X connect 18 0 21 0;
#X connect 19 0 21 0;
#X connect 22 0 0 0;
#X restore 332 523 pd partialmixer~;
#N canvas 597 23 513 661 partial~ 0;
#X obj 39 27 inlet frequency;
#X obj 241 27 inlet end;
#X obj 152 27 inlet start;
#X obj 88 226 outlet~ signal;
#X obj 155 64 bng 15 250 50 0 empty empty empty 17 7 0 10 -262144 -1
-1;
#X obj 220 63 bng 15 250 50 0 empty empty empty 17 7 0 10 -262144 -1
-1;
#X msg 151 99 1 1000;
#X obj 116 187 *~;
#X msg 207 99 0 1000;
#X obj 152 153 line~ 0;
#X obj 59 99 osc~;
#X connect 0 0 10 0;
#X connect 1 0 5 0;
#X connect 2 0 4 0;
#X connect 4 0 6 0;
#X connect 5 0 8 0;
#X connect 6 0 9 0;
#X connect 7 0 3 0;
#X connect 8 0 9 0;
#X connect 9 0 7 1;
#X connect 10 0 7 0;
#X restore 46 405 pd partial~;
#N canvas 597 23 513 661 partial~ 0;
#X obj 39 27 inlet frequency;
#X obj 241 27 inlet end;
#X obj 152 27 inlet start;
#X obj 88 226 outlet~ signal;
#X obj 155 64 bng 15 250 50 0 empty empty empty 17 7 0 10 -262144 -1
-1;
#X obj 220 63 bng 15 250 50 0 empty empty empty 17 7 0 10 -262144 -1
-1;
#X msg 151 99 1 1000;
#X obj 116 187 *~;
#X msg 207 99 0 1000;
#X obj 152 153 line~ 0;
#X obj 59 99 osc~;
#X connect 0 0 10 0;
#X connect 1 0 5 0;
#X connect 2 0 4 0;
#X connect 4 0 6 0;
#X connect 5 0 8 0;
#X connect 6 0 9 0;
#X connect 7 0 3 0;
#X connect 8 0 9 0;
#X connect 9 0 7 1;
#X connect 10 0 7 0;
#X restore 142 405 pd partial~;
#N canvas 597 23 513 661 partial~ 0;
#X obj 39 27 inlet frequency;
#X obj 241 27 inlet end;
#X obj 152 27 inlet start;
#X obj 88 226 outlet~ signal;
#X obj 155 64 bng 15 250 50 0 empty empty empty 17 7 0 10 -262144 -1
-1;
#X obj 220 63 bng 15 250 50 0 empty empty empty 17 7 0 10 -262144 -1
-1;
#X msg 151 99 1 1000;
#X obj 116 187 *~;
#X msg 207 99 0 1000;
#X obj 152 153 line~ 0;
#X obj 59 99 osc~;
#X connect 0 0 10 0;
#X connect 1 0 5 0;
#X connect 2 0 4 0;
#X connect 4 0 6 0;
#X connect 5 0 8 0;
#X connect 6 0 9 0;
#X connect 7 0 3 0;
#X connect 8 0 9 0;
#X connect 9 0 7 1;
#X connect 10 0 7 0;
#X restore 235 405 pd partial~;
#N canvas 597 23 513 661 partial~ 0;
#X obj 39 27 inlet frequency;
#X obj 241 27 inlet end;
#X obj 152 27 inlet start;
#X obj 88 226 outlet~ signal;
#X obj 155 64 bng 15 250 50 0 empty empty empty 17 7 0 10 -262144 -1
-1;
#X obj 220 63 bng 15 250 50 0 empty empty empty 17 7 0 10 -262144 -1
-1;
#X msg 151 99 1 1000;
#X obj 116 187 *~;
#X msg 207 99 0 1000;
#X obj 152 153 line~ 0;
#X obj 59 99 osc~;
#X connect 0 0 10 0;
#X connect 1 0 5 0;
#X connect 2 0 4 0;
#X connect 4 0 6 0;
#X connect 5 0 8 0;
#X connect 6 0 9 0;
#X connect 7 0 3 0;
#X connect 8 0 9 0;
#X connect 9 0 7 1;
#X connect 10 0 7 0;
#X restore 316 405 pd partial~;
#N canvas 597 23 513 661 partial~ 0;
#X obj 39 27 inlet frequency;
#X obj 241 27 inlet end;
#X obj 152 27 inlet start;
#X obj 88 226 outlet~ signal;
#X obj 155 64 bng 15 250 50 0 empty empty empty 17 7 0 10 -262144 -1
-1;
#X obj 220 63 bng 15 250 50 0 empty empty empty 17 7 0 10 -262144 -1
-1;
#X msg 151 99 1 1000;
#X obj 116 187 *~;
#X msg 207 99 0 1000;
#X obj 152 153 line~ 0;
#X obj 59 99 osc~;
#X connect 0 0 10 0;
#X connect 1 0 5 0;
#X connect 2 0 4 0;
#X connect 4 0 6 0;
#X connect 5 0 8 0;
#X connect 6 0 9 0;
#X connect 7 0 3 0;
#X connect 8 0 9 0;
#X connect 9 0 7 1;
#X connect 10 0 7 0;
#X restore 409 405 pd partial~;
#N canvas 597 23 513 661 partial~ 0;
#X obj 39 27 inlet frequency;
#X obj 241 27 inlet end;
#X obj 152 27 inlet start;
#X obj 88 226 outlet~ signal;
#X obj 155 64 bng 15 250 50 0 empty empty empty 17 7 0 10 -262144 -1
-1;
#X obj 220 63 bng 15 250 50 0 empty empty empty 17 7 0 10 -262144 -1
-1;
#X msg 151 99 1 1000;
#X obj 116 187 *~;
#X msg 207 99 0 1000;
#X obj 152 153 line~ 0;
#X obj 59 99 osc~;
#X connect 0 0 10 0;
#X connect 1 0 5 0;
#X connect 2 0 4 0;
#X connect 4 0 6 0;
#X connect 5 0 8 0;
#X connect 6 0 9 0;
#X connect 7 0 3 0;
#X connect 8 0 9 0;
#X connect 9 0 7 1;
#X connect 10 0 7 0;
#X restore 500 405 pd partial~;
#N canvas 1400 23 513 661 partial~ 0;
#X obj 39 27 inlet frequency;
#X obj 241 27 inlet end;
#X obj 152 27 inlet start;
#X obj 88 226 outlet~ signal;
#X obj 155 64 bng 15 250 50 0 empty empty empty 17 7 0 10 -262144 -1
-1;
#X obj 220 63 bng 15 250 50 0 empty empty empty 17 7 0 10 -262144 -1
-1;
#X msg 151 99 1 1000;
#X obj 116 187 *~;
#X msg 207 99 0 1000;
#X obj 152 153 line~ 0;
#X obj 59 99 osc~;
#X connect 0 0 10 0;
#X connect 1 0 5 0;
#X connect 2 0 4 0;
#X connect 4 0 6 0;
#X connect 5 0 8 0;
#X connect 6 0 9 0;
#X connect 7 0 3 0;
#X connect 8 0 9 0;
#X connect 9 0 7 1;
#X connect 10 0 7 0;
#X restore 584 405 pd partial~;
#N canvas 597 23 513 661 partial~ 0;
#X obj 39 27 inlet frequency;
#X obj 241 27 inlet end;
#X obj 152 27 inlet start;
#X obj 88 226 outlet~ signal;
#X obj 155 64 bng 15 250 50 0 empty empty empty 17 7 0 10 -262144 -1
-1;
#X obj 220 63 bng 15 250 50 0 empty empty empty 17 7 0 10 -262144 -1
-1;
#X msg 151 99 1 1000;
#X obj 116 187 *~;
#X msg 207 99 0 1000;
#X obj 152 153 line~ 0;
#X obj 59 99 osc~;
#X connect 0 0 10 0;
#X connect 1 0 5 0;
#X connect 2 0 4 0;
#X connect 4 0 6 0;
#X connect 5 0 8 0;
#X connect 6 0 9 0;
#X connect 7 0 3 0;
#X connect 8 0 9 0;
#X connect 9 0 7 1;
#X connect 10 0 7 0;
#X restore 677 405 pd partial~;
#N canvas 597 23 513 661 partial~ 0;
#X obj 39 27 inlet frequency;
#X obj 241 27 inlet end;
#X obj 152 27 inlet start;
#X obj 88 226 outlet~ signal;
#X obj 155 64 bng 15 250 50 0 empty empty empty 17 7 0 10 -262144 -1
-1;
#X obj 220 63 bng 15 250 50 0 empty empty empty 17 7 0 10 -262144 -1
-1;
#X msg 151 99 1 1000;
#X obj 116 187 *~;
#X msg 207 99 0 1000;
#X obj 152 153 line~ 0;
#X obj 59 99 osc~;
#X connect 0 0 10 0;
#X connect 1 0 5 0;
#X connect 2 0 4 0;
#X connect 4 0 6 0;
#X connect 5 0 8 0;
#X connect 6 0 9 0;
#X connect 7 0 3 0;
#X connect 8 0 9 0;
#X connect 9 0 7 1;
#X connect 10 0 7 0;
#X restore 758 405 pd partial~;
#N canvas 597 23 513 661 partial~ 0;
#X obj 39 27 inlet frequency;
#X obj 241 27 inlet end;
#X obj 152 27 inlet start;
#X obj 88 226 outlet~ signal;
#X obj 155 64 bng 15 250 50 0 empty empty empty 17 7 0 10 -262144 -1
-1;
#X obj 220 63 bng 15 250 50 0 empty empty empty 17 7 0 10 -262144 -1
-1;
#X msg 151 99 1 1000;
#X obj 116 187 *~;
#X msg 207 99 0 1000;
#X obj 152 153 line~ 0;
#X obj 59 99 osc~;
#X connect 0 0 10 0;
#X connect 1 0 5 0;
#X connect 2 0 4 0;
#X connect 4 0 6 0;
#X connect 5 0 8 0;
#X connect 6 0 9 0;
#X connect 7 0 3 0;
#X connect 8 0 9 0;
#X connect 9 0 7 1;
#X connect 10 0 7 0;
#X restore 852 405 pd partial~;
#X obj 25 356 mtof;
#X obj 139 355 mtof;
#X obj 233 353 mtof;
#X obj 313 352 mtof;
#X obj 391 354 mtof;
#X obj 476 354 mtof;
#X obj 559 349 mtof;
#X obj 645 349 mtof;
#X obj 734 351 mtof;
#X obj 821 351 mtof;
#X msg 23 329 42;
#X msg 139 325 46;
#X msg 230 321 52;
#X msg 309 321 57;
#X msg 387 319 60;
#X msg 470 319 66;
#X msg 553 314 70;
#X msg 639 316 76;
#X msg 728 318 81;
#X obj 689 196 loadbang;
#X text 639 141 TODO: Bug in Partial #9 \, doesn't play;
#X msg 815 318 86;
#N canvas 43 23 840 582 sensorstatus 0;
#X obj 37 22 inlet sensorparams;
#X obj 435 539 outlet isplaying;
#X obj 567 542 outlet notplaying;
#X obj 193 232 tabwrite sensors;
#N canvas 0 22 450 278 (subpatch) 0;
#X array sensors 10 float 3;
#A 0 0 0 0 0 0 0 0 0 0 0;
#X coords 0 1 10 -1 200 140 1;
#X restore 191 265 graph;
#X obj 275 143 unpack f f;
#X obj 136 103 trigger bang bang bang list;
#X obj 198 197 float;
#X obj 249 197 float;
#X text 160 54 order of operations is really important here.;
#X text 162 69 numbers need to be set and then banged in reverse order
from osc message to reflect how it is stored in array;
#X text 46 445 TODO: send a bang to isplaying if playing notplaying
if not;
#X obj 558 19 loadbang;
#X msg 561 93 \; sensors 0 0 0 0 0 0 0 0 0 0 0;
#X obj 486 298 unpack f f;
#X obj 447 263 tabminmax sensors;
#X obj 623 367 == 0;
#X obj 607 431 spigot;
#X obj 602 473 bng 25 250 50 0 empty empty empty 17 7 0 10 -262144
-1 -1;
#X obj 539 367 == 1;
#X obj 531 431 spigot;
#X obj 415 216 t b b;
#X obj 462 356 t b b;
#X obj 532 475 bng 25 250 50 0 empty empty empty 17 7 0 10 -262144
-1 -1;
#X connect 0 0 6 0;
#X connect 5 0 7 1;
#X connect 5 1 8 1;
#X connect 6 0 21 0;
#X connect 6 1 8 0;
#X connect 6 2 7 0;
#X connect 6 3 5 0;
#X connect 7 0 3 1;
#X connect 8 0 3 0;
#X connect 12 0 13 0;
#X connect 14 0 16 0;
#X connect 14 0 19 0;
#X connect 15 1 14 0;
#X connect 16 0 17 1;
#X connect 17 0 18 0;
#X connect 18 0 2 0;
#X connect 19 0 20 1;
#X connect 20 0 23 0;
#X connect 21 0 22 0;
#X connect 21 1 15 0;
#X connect 22 0 17 0;
#X connect 22 1 20 0;
#X connect 23 0 1 0;
#X restore 595 649 pd sensorstatus;
#X obj 96 58 send sensorparams;
#X obj 108 142 receive sensorparams;
#X obj 596 617 receive sensorparams;
#X obj 554 693 outlet isplaying;
#X obj 674 694 outlet notplaying;
#X connect 0 0 37 0;
#X connect 2 0 4 1;
#X connect 2 1 4 2;
#X connect 2 2 5 1;
#X connect 2 3 5 2;
#X connect 2 4 6 1;
#X connect 2 5 6 2;
#X connect 2 6 7 1;
#X connect 2 7 7 2;
#X connect 2 8 8 1;
#X connect 2 9 8 2;
#X connect 2 10 9 1;
#X connect 2 11 9 2;
#X connect 2 12 10 1;
#X connect 2 13 10 2;
#X connect 2 14 11 1;
#X connect 2 15 11 2;
#X connect 2 16 12 1;
#X connect 2 17 12 2;
#X connect 2 18 13 1;
#X connect 2 19 13 2;
#X connect 3 0 1 0;
#X connect 4 0 3 0;
#X connect 5 0 3 1;
#X connect 6 0 3 2;
#X connect 7 0 3 3;
#X connect 8 0 3 4;
#X connect 9 0 3 5;
#X connect 10 0 3 6;
#X connect 11 0 3 7;
#X connect 12 0 3 8;
#X connect 13 0 3 9;
#X connect 14 0 4 0;
#X connect 15 0 5 0;
#X connect 16 0 6 0;
#X connect 17 0 7 0;
#X connect 18 0 8 0;
#X connect 19 0 9 0;
#X connect 20 0 10 0;
#X connect 21 0 11 0;
#X connect 22 0 12 0;
#X connect 23 0 13 0;
#X connect 24 0 14 0;
#X connect 25 0 15 0;
#X connect 26 0 16 0;
#X connect 27 0 17 0;
#X connect 28 0 18 0;
#X connect 29 0 19 0;
#X connect 30 0 20 0;
#X connect 31 0 21 0;
#X connect 32 0 22 0;
#X connect 33 0 24 0;
#X connect 33 0 25 0;
#X connect 33 0 26 0;
#X connect 33 0 27 0;
#X connect 33 0 28 0;
#X connect 33 0 29 0;
#X connect 33 0 30 0;
#X connect 33 0 31 0;
#X connect 33 0 32 0;
#X connect 33 0 35 0;
#X connect 35 0 23 0;
#X connect 36 0 40 0;
#X connect 36 1 41 0;
#X connect 38 0 2 0;
#X connect 39 0 36 0;
#X restore 366 239 pd sensor~;
#N canvas 81 23 898 703 proximity~ 0;
#X obj 95 17 inlet proximity;
#X obj 260 625 outlet~ audio;
#X obj 221 298 bng 40 250 50 0 empty empty empty 17 7 0 10 -262144
-1 -1;
#X obj 248 425 line~;
#X msg 276 373 0 250;
#X floatatom 96 49 10 0 1 0 - - -, f 10;
#X obj 579 399 *~ 0.2;
#X obj 528 368 *~ 0.2;
#X obj 469 340 *~ 0.2;
#X obj 279 342 delay 100;
#X msg 216 386 1 100;
#X obj 179 105 < 0.5;
#X obj 115 105 < 0.25;
#X obj 255 481 *~;
#X obj 235 105 < 0.75;
#X text 365 19 TODO \, Amplitude should be affected by proximity \,
inversely to the number. E.g. 0.9 should mean a soft sound;
#X obj 469 313 osc~ 1400;
#X obj 527 342 osc~ 1600;
#X obj 578 372 osc~ 1800;
#X obj 301 105 < 0.8;
#X obj 425 622 outlet isplaying;
#X obj 592 624 outlet notplaying;
#X obj 379 100 > 0.85;
#X obj 61 105 < 0.1;
#X obj 33 222 spigot;
#X obj 103 221 spigot;
#X obj 163 221 spigot;
#X obj 224 220 spigot;
#X obj 289 221 spigot;
#X obj 356 220 spigot;
#X obj 364 139 change;
#X obj 284 144 change;
#X obj 217 144 change;
#X obj 160 144 change;
#X obj 100 144 change;
#X obj 30 144 change;
#X obj 38 185 t b;
#X obj 101 187 t b;
#X obj 164 187 t b;
#X obj 218 192 t b;
#X obj 286 193 t b;
#X obj 364 184 t b;
#X connect 0 0 5 0;
#X connect 2 0 10 0;
#X connect 2 0 9 0;
#X connect 2 0 20 0;
#X connect 3 0 13 0;
#X connect 4 0 3 0;
#X connect 5 0 12 0;
#X connect 5 0 11 0;
#X connect 5 0 14 0;
#X connect 5 0 19 0;
#X connect 5 0 22 0;
#X connect 5 0 23 0;
#X connect 6 0 13 1;
#X connect 7 0 13 1;
#X connect 8 0 13 1;
#X connect 9 0 4 0;
#X connect 10 0 3 0;
#X connect 11 0 26 1;
#X connect 11 0 33 0;
#X connect 12 0 25 1;
#X connect 12 0 34 0;
#X connect 13 0 1 0;
#X connect 14 0 27 1;
#X connect 14 0 32 0;
#X connect 16 0 8 0;
#X connect 17 0 7 0;
#X connect 18 0 6 0;
#X connect 19 0 28 1;
#X connect 19 0 31 0;
#X connect 22 0 29 1;
#X connect 22 0 30 0;
#X connect 23 0 24 1;
#X connect 23 0 35 0;
#X connect 24 0 21 0;
#X connect 25 0 2 0;
#X connect 26 0 2 0;
#X connect 27 0 2 0;
#X connect 28 0 2 0;
#X connect 29 0 21 0;
#X connect 30 0 41 0;
#X connect 31 0 40 0;
#X connect 32 0 39 0;
#X connect 33 0 38 0;
#X connect 34 0 37 0;
#X connect 35 0 36 0;
#X connect 36 0 24 0;
#X connect 37 0 25 0;
#X connect 38 0 26 0;
#X connect 39 0 27 0;
#X connect 40 0 28 0;
#X connect 41 0 29 0;
#X restore 590 244 pd proximity~;
#X obj 355 88 print unpacked;
#X obj 342 116 routeOSC /iceburg/sensor /iceburg/proximity /iceburg/volume
, f 62;
#N canvas 561 23 450 300 volume~ 0;
#X obj 41 116 *~ 1;
#X obj 153 30 inlet volumelevel;
#X obj 48 215 outlet~ audioleft;
#X obj 168 214 outlet~ audioright, f 42;
#X obj 44 31 inlet~ audioin;
#X text 91 116 THIS IS CURRENTLY MONO;
#X connect 0 0 2 0;
#X connect 0 0 3 0;
#X connect 1 0 0 1;
#X connect 4 0 0 0;
#X restore 436 535 pd volume~;
#N canvas 479 23 663 641 ambient~ 0;
#X obj 275 415 osc~ 1400;
#X obj 103 259 bng 40 250 50 0 empty empty empty 17 7 0 10 -262144
-1 -1;
#X obj 105 470 line~;
#X obj 112 502 *~;
#X obj 109 565 outlet~ audio;
#X obj 282 388 mtof;
#X msg 93 390 0 900;
#X msg 35 391 1 1200;
#X obj 85 349 delay 1200;
#X obj 342 415 osc~ 1400;
#X obj 349 388 mtof;
#X msg 357 359 36;
#X obj 107 17 inlet startambient;
#X obj 257 17 inlet stopambient;
#X msg 178 90 stop;
#X obj 110 177 metro 6000;
#X obj 411 415 osc~ 1400;
#X obj 418 388 mtof;
#X msg 290 359 54;
#X msg 426 359 56;
#X obj 342 452 *~ 0.7;
#X obj 273 452 *~ 0.15;
#X obj 409 452 *~ 0.15;
#X obj 123 538 *~ 0.65;
#X text 176 539 ambient volume should be a little lower than other
sounds;
#X text 457 358 whole tone scale, f 20;
#X text 171 374 fade out sound;
#X text 176 111 stop repeating sound;
#X msg 163 421 0 400;
#X obj 260 49 t b b;
#X obj 178 392 receive fadeout;
#X obj 320 89 send fadeout;
#X connect 0 0 21 0;
#X connect 1 0 18 0;
#X connect 1 0 7 0;
#X connect 1 0 8 0;
#X connect 1 0 11 0;
#X connect 1 0 19 0;
#X connect 2 0 3 0;
#X connect 3 0 23 0;
#X connect 5 0 0 0;
#X connect 6 0 2 0;
#X connect 7 0 2 0;
#X connect 8 0 6 0;
#X connect 9 0 20 0;
#X connect 10 0 9 0;
#X connect 11 0 10 0;
#X connect 12 0 15 0;
#X connect 13 0 29 0;
#X connect 14 0 15 0;
#X connect 15 0 1 0;
#X connect 16 0 22 0;
#X connect 17 0 16 0;
#X connect 18 0 5 0;
#X connect 19 0 17 0;
#X connect 20 0 3 1;
#X connect 21 0 3 1;
#X connect 22 0 3 1;
#X connect 23 0 4 0;
#X connect 28 0 2 0;
#X connect 29 0 14 0;
#X connect 29 1 31 0;
#X connect 30 0 28 0;
#X restore 109 300 pd ambient~;
#X obj 28 68 loadbang;
#X obj 175 254 bng 25 250 50 0 empty empty empty 17 7 0 10 -262144
-1 -1;
#X obj 104 254 bng 25 250 50 0 empty empty empty 17 7 0 10 -262144
-1 -1;
#X text 206 253 stop ambience;
#X text 12 253 start ambience;
#X obj 397 295 send stopambient;
#X obj 424 269 send startambient;
#X obj 630 294 send stopambient;
#X obj 667 270 send startambient;
#X obj 169 101 receive stopambient;
#X obj 98 69 receive startambient;
#X obj 103 190 delay;
#X msg 103 165 6000;
#X obj 104 216 t b;
#X obj 588 151 send volumenum;
#X obj 511 505 receive volumenum;
#X text 964 656 Concept and Execution by Nathan Koch Dependencies:
osc zexy;
#X connect 1 0 2 0;
#X connect 2 0 5 0;
#X connect 2 0 6 0;
#X connect 3 0 7 0;
#X connect 3 1 14 0;
#X connect 3 2 15 0;
#X connect 4 0 7 0;
#X connect 4 1 16 0;
#X connect 4 2 17 0;
#X connect 6 0 3 0;
#X connect 6 1 4 0;
#X connect 6 2 23 0;
#X connect 7 0 0 0;
#X connect 7 1 0 1;
#X connect 8 0 7 0;
#X connect 9 0 21 0;
#X connect 10 0 8 1;
#X connect 11 0 8 0;
#X connect 18 0 10 0;
#X connect 19 0 21 0;
#X connect 20 0 22 0;
#X connect 21 0 20 0;
#X connect 22 0 11 0;
#X connect 24 0 7 1;
#X coords 0 0 1 1 85 60 0;
