#N canvas 27 23 1178 811 10;
#X obj 348 662 dac~;
#X obj 82 26 netreceive -u -b 8000;
#N canvas 47 49 1271 411 sensormap 0;
#X obj 66 115 select 0 1 2 3 4 5 6 7 8 9, f 71;
#N canvas 0 22 737 553 statusgate 0;
#X obj 98 215 outlet end;
#X obj 8 215 outlet start;
#X obj 17 18 inlet trigger;
#X obj 25 134 spigot;
#X floatatom 87 74 5 0 0 0 - - -, f 5;
#X floatatom 131 74 5 0 0 0 - - -, f 5;
#X obj 134 51 == 0;
#X obj 115 134 spigot;
#X obj 25 55 bng 20 250 50 0 empty empty empty 17 7 0 10 -262144 -1
-1;
#X obj 123 18 inlet status;
#X connect 2 0 8 0;
#X connect 3 0 1 0;
#X connect 4 0 3 1;
#X connect 5 0 7 1;
#X connect 6 0 5 0;
#X connect 7 0 0 0;
#X connect 8 0 3 0;
#X connect 8 0 7 0;
#X connect 9 0 6 0;
#X connect 9 0 4 0;
#X restore 110 226 pd statusgate;
#N canvas 0 22 737 553 statusgate 0;
#X obj 98 215 outlet end;
#X obj 8 215 outlet start;
#X obj 17 18 inlet trigger;
#X obj 25 134 spigot;
#X floatatom 87 74 5 0 0 0 - - -, f 5;
#X floatatom 131 74 5 0 0 0 - - -, f 5;
#X obj 134 51 == 0;
#X obj 115 134 spigot;
#X obj 25 55 bng 20 250 50 0 empty empty empty 17 7 0 10 -262144 -1
-1;
#X obj 123 18 inlet status;
#X connect 2 0 8 0;
#X connect 3 0 1 0;
#X connect 4 0 3 1;
#X connect 5 0 7 1;
#X connect 6 0 5 0;
#X connect 7 0 0 0;
#X connect 8 0 3 0;
#X connect 8 0 7 0;
#X connect 9 0 6 0;
#X connect 9 0 4 0;
#X restore 215 226 pd statusgate;
#N canvas 0 22 737 553 statusgate 0;
#X obj 98 215 outlet end;
#X obj 8 215 outlet start;
#X obj 17 18 inlet trigger;
#X obj 25 134 spigot;
#X floatatom 87 74 5 0 0 0 - - -, f 5;
#X floatatom 131 74 5 0 0 0 - - -, f 5;
#X obj 134 51 == 0;
#X obj 115 134 spigot;
#X obj 25 55 bng 20 250 50 0 empty empty empty 17 7 0 10 -262144 -1
-1;
#X obj 123 18 inlet status;
#X connect 2 0 8 0;
#X connect 3 0 1 0;
#X connect 4 0 3 1;
#X connect 5 0 7 1;
#X connect 6 0 5 0;
#X connect 7 0 0 0;
#X connect 8 0 3 0;
#X connect 8 0 7 0;
#X connect 9 0 6 0;
#X connect 9 0 4 0;
#X restore 317 226 pd statusgate;
#N canvas 0 22 737 553 statusgate 0;
#X obj 98 215 outlet end;
#X obj 8 215 outlet start;
#X obj 17 18 inlet trigger;
#X obj 25 134 spigot;
#X floatatom 87 74 5 0 0 0 - - -, f 5;
#X floatatom 131 74 5 0 0 0 - - -, f 5;
#X obj 134 51 == 0;
#X obj 115 134 spigot;
#X obj 25 55 bng 20 250 50 0 empty empty empty 17 7 0 10 -262144 -1
-1;
#X obj 123 18 inlet status;
#X connect 2 0 8 0;
#X connect 3 0 1 0;
#X connect 4 0 3 1;
#X connect 5 0 7 1;
#X connect 6 0 5 0;
#X connect 7 0 0 0;
#X connect 8 0 3 0;
#X connect 8 0 7 0;
#X connect 9 0 6 0;
#X connect 9 0 4 0;
#X restore 412 226 pd statusgate;
#N canvas 0 22 737 553 statusgate 0;
#X obj 98 215 outlet end;
#X obj 8 215 outlet start;
#X obj 17 18 inlet trigger;
#X obj 25 134 spigot;
#X floatatom 87 74 5 0 0 0 - - -, f 5;
#X floatatom 131 74 5 0 0 0 - - -, f 5;
#X obj 134 51 == 0;
#X obj 115 134 spigot;
#X obj 25 55 bng 20 250 50 0 empty empty empty 17 7 0 10 -262144 -1
-1;
#X obj 123 18 inlet status;
#X connect 2 0 8 0;
#X connect 3 0 1 0;
#X connect 4 0 3 1;
#X connect 5 0 7 1;
#X connect 6 0 5 0;
#X connect 7 0 0 0;
#X connect 8 0 3 0;
#X connect 8 0 7 0;
#X connect 9 0 6 0;
#X connect 9 0 4 0;
#X restore 501 226 pd statusgate;
#N canvas 0 22 737 553 statusgate 0;
#X obj 98 215 outlet end;
#X obj 8 215 outlet start;
#X obj 17 18 inlet trigger;
#X obj 25 134 spigot;
#X floatatom 87 74 5 0 0 0 - - -, f 5;
#X floatatom 131 74 5 0 0 0 - - -, f 5;
#X obj 134 51 == 0;
#X obj 115 134 spigot;
#X obj 25 55 bng 20 250 50 0 empty empty empty 17 7 0 10 -262144 -1
-1;
#X obj 123 18 inlet status;
#X connect 2 0 8 0;
#X connect 3 0 1 0;
#X connect 4 0 3 1;
#X connect 5 0 7 1;
#X connect 6 0 5 0;
#X connect 7 0 0 0;
#X connect 8 0 3 0;
#X connect 8 0 7 0;
#X connect 9 0 6 0;
#X connect 9 0 4 0;
#X restore 606 226 pd statusgate;
#N canvas 0 22 737 553 statusgate 0;
#X obj 98 215 outlet end;
#X obj 8 215 outlet start;
#X obj 17 18 inlet trigger;
#X obj 25 134 spigot;
#X floatatom 87 74 5 0 0 0 - - -, f 5;
#X floatatom 131 74 5 0 0 0 - - -, f 5;
#X obj 134 51 == 0;
#X obj 115 134 spigot;
#X obj 25 55 bng 20 250 50 0 empty empty empty 17 7 0 10 -262144 -1
-1;
#X obj 123 18 inlet status;
#X connect 2 0 8 0;
#X connect 3 0 1 0;
#X connect 4 0 3 1;
#X connect 5 0 7 1;
#X connect 6 0 5 0;
#X connect 7 0 0 0;
#X connect 8 0 3 0;
#X connect 8 0 7 0;
#X connect 9 0 6 0;
#X connect 9 0 4 0;
#X restore 708 226 pd statusgate;
#N canvas 0 22 737 553 statusgate 0;
#X obj 98 215 outlet end;
#X obj 8 215 outlet start;
#X obj 17 18 inlet trigger;
#X obj 25 134 spigot;
#X floatatom 87 74 5 0 0 0 - - -, f 5;
#X floatatom 131 74 5 0 0 0 - - -, f 5;
#X obj 134 51 == 0;
#X obj 115 134 spigot;
#X obj 25 55 bng 20 250 50 0 empty empty empty 17 7 0 10 -262144 -1
-1;
#X obj 123 18 inlet status;
#X connect 2 0 8 0;
#X connect 3 0 1 0;
#X connect 4 0 3 1;
#X connect 5 0 7 1;
#X connect 6 0 5 0;
#X connect 7 0 0 0;
#X connect 8 0 3 0;
#X connect 8 0 7 0;
#X connect 9 0 6 0;
#X connect 9 0 4 0;
#X restore 803 226 pd statusgate;
#N canvas 0 22 737 553 statusgate 0;
#X obj 98 215 outlet end;
#X obj 8 215 outlet start;
#X obj 17 18 inlet trigger;
#X obj 25 134 spigot;
#X floatatom 87 74 5 0 0 0 - - -, f 5;
#X floatatom 131 74 5 0 0 0 - - -, f 5;
#X obj 134 51 == 0;
#X obj 115 134 spigot;
#X obj 25 55 bng 20 250 50 0 empty empty empty 17 7 0 10 -262144 -1
-1;
#X obj 123 18 inlet status;
#X connect 2 0 8 0;
#X connect 3 0 1 0;
#X connect 4 0 3 1;
#X connect 5 0 7 1;
#X connect 6 0 5 0;
#X connect 7 0 0 0;
#X connect 8 0 3 0;
#X connect 8 0 7 0;
#X connect 9 0 6 0;
#X connect 9 0 4 0;
#X restore 898 226 pd statusgate;
#N canvas 0 22 737 553 statusgate 0;
#X obj 98 215 outlet end;
#X obj 8 215 outlet start;
#X obj 17 18 inlet trigger;
#X obj 25 134 spigot;
#X floatatom 87 74 5 0 0 0 - - -, f 5;
#X floatatom 131 74 5 0 0 0 - - -, f 5;
#X obj 134 51 == 0;
#X obj 115 134 spigot;
#X obj 25 55 bng 20 250 50 0 empty empty empty 17 7 0 10 -262144 -1
-1;
#X obj 123 18 inlet status;
#X connect 2 0 8 0;
#X connect 3 0 1 0;
#X connect 4 0 3 1;
#X connect 5 0 7 1;
#X connect 6 0 5 0;
#X connect 7 0 0 0;
#X connect 8 0 3 0;
#X connect 8 0 7 0;
#X connect 9 0 6 0;
#X connect 9 0 4 0;
#X restore 999 226 pd statusgate;
#X text 110 260 Sensor 0;
#X text 216 260 Sensor 1;
#X text 320 260 Sensor 2;
#X text 415 260 Sensor 3;
#X text 507 260 Sensor 4;
#X text 613 260 Sensor 5;
#X text 718 260 Sensor 6;
#X text 812 260 Sensor 7;
#X text 906 260 Sensor 8;
#X text 1006 260 Sensor 9;
#X obj 74 294 outlet 0on;
#X obj 134 331 outlet 0off;
#X obj 181 294 outlet 1on;
#X obj 241 331 outlet 1off;
#X obj 281 294 outlet 2on;
#X obj 346 331 outlet 2off;
#X obj 380 294 outlet 3on;
#X obj 439 331 outlet 3off;
#X obj 475 294 outlet 4on;
#X obj 541 331 outlet 4off;
#X obj 592 294 outlet 5on;
#X obj 647 331 outlet 5off;
#X obj 692 294 outlet 6on;
#X obj 758 331 outlet 6off;
#X obj 803 294 outlet 7on;
#X obj 875 331 outlet 7off;
#X obj 911 294 outlet 8on;
#X obj 983 331 outlet 8off;
#X obj 998 294 outlet 9on;
#X obj 1099 331 outlet 9off;
#X obj 627 115 trigger f f f f f f f f f f, f 89;
#X obj 434 8 inlet sensorparams;
#X obj 434 37 unpack f f;
#X obj 341 67 int;
#X obj 522 67 int;
#X text 562 24 PARAM #2 (INT - RANGE 0 to 1) : sensor status;
#X text 563 6 PARAM #1 (INT - RANGE 0 to 9) : sensor num;
#X text 556 66 (casting these to ints just in case of bad data), f
123;
#X connect 0 0 1 0;
#X connect 0 1 2 0;
#X connect 0 2 3 0;
#X connect 0 3 4 0;
#X connect 0 4 5 0;
#X connect 0 5 6 0;
#X connect 0 6 7 0;
#X connect 0 7 8 0;
#X connect 0 8 9 0;
#X connect 0 9 10 0;
#X connect 1 0 21 0;
#X connect 1 1 22 0;
#X connect 2 0 23 0;
#X connect 2 1 24 0;
#X connect 3 0 25 0;
#X connect 3 1 26 0;
#X connect 4 0 27 0;
#X connect 4 1 28 0;
#X connect 5 0 29 0;
#X connect 5 1 30 0;
#X connect 6 0 31 0;
#X connect 6 1 32 0;
#X connect 7 0 33 0;
#X connect 7 1 34 0;
#X connect 8 0 35 0;
#X connect 8 1 36 0;
#X connect 9 0 37 0;
#X connect 9 1 38 0;
#X connect 10 0 39 0;
#X connect 10 1 40 0;
#X connect 41 0 1 1;
#X connect 41 1 2 1;
#X connect 41 2 3 1;
#X connect 41 3 4 1;
#X connect 41 4 5 1;
#X connect 41 5 6 1;
#X connect 41 6 7 1;
#X connect 41 7 8 1;
#X connect 41 8 9 1;
#X connect 41 9 10 1;
#X connect 42 0 43 0;
#X connect 43 0 44 0;
#X connect 43 1 45 0;
#X connect 44 0 0 0;
#X connect 45 0 41 0;
#X restore 101 238 pd sensormap, f 139;
#N canvas 97 23 1096 724 partialmixer~ 0;
#X obj 367 287 outlet~ audio;
#X obj 144 45 inlet~ partial1;
#X obj 38 45 inlet~ partial0;
#X obj 252 45 inlet~ partial2;
#X obj 357 45 inlet~ partial3;
#X obj 458 45 inlet~ partial4;
#X obj 559 45 inlet~ partial5;
#X obj 663 45 inlet~ partial6;
#X obj 771 45 inlet~ partial7;
#X obj 879 45 inlet~ partial8;
#X obj 983 45 inlet~ partial9;
#X obj 39 87 *~ 0.1;
#X obj 146 87 *~ 0.1;
#X obj 256 87 *~ 0.1;
#X obj 357 87 *~ 0.1;
#X obj 459 87 *~ 0.1;
#X obj 566 87 *~ 0.1;
#X obj 676 87 *~ 0.1;
#X obj 777 87 *~ 0.1;
#X obj 880 87 *~ 0.1;
#X obj 981 87 *~ 0.1;
#X obj 383 184 throw~ allpartials;
#X obj 374 228 catch~ allpartials, f 35;
#X connect 1 0 12 0;
#X connect 2 0 11 0;
#X connect 3 0 13 0;
#X connect 4 0 14 0;
#X connect 5 0 15 0;
#X connect 6 0 16 0;
#X connect 7 0 17 0;
#X connect 8 0 18 0;
#X connect 9 0 19 0;
#X connect 10 0 20 0;
#X connect 11 0 21 0;
#X connect 12 0 21 0;
#X connect 13 0 21 0;
#X connect 14 0 21 0;
#X connect 15 0 21 0;
#X connect 16 0 21 0;
#X connect 17 0 21 0;
#X connect 18 0 21 0;
#X connect 19 0 21 0;
#X connect 22 0 0 0;
#X restore 352 606 pd partialmixer~, f 70;
#N canvas 597 23 513 661 partial~ 0;
#X obj 39 27 inlet frequency;
#X obj 241 27 inlet end;
#X obj 152 27 inlet start;
#X obj 88 226 outlet~ signal;
#X obj 155 64 bng 15 250 50 0 empty empty empty 17 7 0 10 -262144 -1
-1;
#X obj 220 63 bng 15 250 50 0 empty empty empty 17 7 0 10 -262144 -1
-1;
#X msg 151 99 1 1000;
#X obj 116 187 *~;
#X msg 207 99 0 1000;
#X obj 152 153 line~ 0;
#X obj 59 99 osc~;
#X connect 0 0 10 0;
#X connect 1 0 5 0;
#X connect 2 0 4 0;
#X connect 4 0 6 0;
#X connect 5 0 8 0;
#X connect 6 0 9 0;
#X connect 7 0 3 0;
#X connect 8 0 9 0;
#X connect 9 0 7 1;
#X connect 10 0 7 0;
#X restore 65 528 pd partial~;
#N canvas 597 23 513 661 partial~ 0;
#X obj 39 27 inlet frequency;
#X obj 241 27 inlet end;
#X obj 152 27 inlet start;
#X obj 88 226 outlet~ signal;
#X obj 155 64 bng 15 250 50 0 empty empty empty 17 7 0 10 -262144 -1
-1;
#X obj 220 63 bng 15 250 50 0 empty empty empty 17 7 0 10 -262144 -1
-1;
#X msg 151 99 1 1000;
#X obj 116 187 *~;
#X msg 207 99 0 1000;
#X obj 152 153 line~ 0;
#X obj 59 99 osc~;
#X connect 0 0 10 0;
#X connect 1 0 5 0;
#X connect 2 0 4 0;
#X connect 4 0 6 0;
#X connect 5 0 8 0;
#X connect 6 0 9 0;
#X connect 7 0 3 0;
#X connect 8 0 9 0;
#X connect 9 0 7 1;
#X connect 10 0 7 0;
#X restore 161 528 pd partial~;
#N canvas 597 23 513 661 partial~ 0;
#X obj 39 27 inlet frequency;
#X obj 241 27 inlet end;
#X obj 152 27 inlet start;
#X obj 88 226 outlet~ signal;
#X obj 155 64 bng 15 250 50 0 empty empty empty 17 7 0 10 -262144 -1
-1;
#X obj 220 63 bng 15 250 50 0 empty empty empty 17 7 0 10 -262144 -1
-1;
#X msg 151 99 1 1000;
#X obj 116 187 *~;
#X msg 207 99 0 1000;
#X obj 152 153 line~ 0;
#X obj 59 99 osc~;
#X connect 0 0 10 0;
#X connect 1 0 5 0;
#X connect 2 0 4 0;
#X connect 4 0 6 0;
#X connect 5 0 8 0;
#X connect 6 0 9 0;
#X connect 7 0 3 0;
#X connect 8 0 9 0;
#X connect 9 0 7 1;
#X connect 10 0 7 0;
#X restore 254 528 pd partial~;
#N canvas 597 23 513 661 partial~ 0;
#X obj 39 27 inlet frequency;
#X obj 241 27 inlet end;
#X obj 152 27 inlet start;
#X obj 88 226 outlet~ signal;
#X obj 155 64 bng 15 250 50 0 empty empty empty 17 7 0 10 -262144 -1
-1;
#X obj 220 63 bng 15 250 50 0 empty empty empty 17 7 0 10 -262144 -1
-1;
#X msg 151 99 1 1000;
#X obj 116 187 *~;
#X msg 207 99 0 1000;
#X obj 152 153 line~ 0;
#X obj 59 99 osc~;
#X connect 0 0 10 0;
#X connect 1 0 5 0;
#X connect 2 0 4 0;
#X connect 4 0 6 0;
#X connect 5 0 8 0;
#X connect 6 0 9 0;
#X connect 7 0 3 0;
#X connect 8 0 9 0;
#X connect 9 0 7 1;
#X connect 10 0 7 0;
#X restore 335 528 pd partial~;
#N canvas 597 23 513 661 partial~ 0;
#X obj 39 27 inlet frequency;
#X obj 241 27 inlet end;
#X obj 152 27 inlet start;
#X obj 88 226 outlet~ signal;
#X obj 155 64 bng 15 250 50 0 empty empty empty 17 7 0 10 -262144 -1
-1;
#X obj 220 63 bng 15 250 50 0 empty empty empty 17 7 0 10 -262144 -1
-1;
#X msg 151 99 1 1000;
#X obj 116 187 *~;
#X msg 207 99 0 1000;
#X obj 152 153 line~ 0;
#X obj 59 99 osc~;
#X connect 0 0 10 0;
#X connect 1 0 5 0;
#X connect 2 0 4 0;
#X connect 4 0 6 0;
#X connect 5 0 8 0;
#X connect 6 0 9 0;
#X connect 7 0 3 0;
#X connect 8 0 9 0;
#X connect 9 0 7 1;
#X connect 10 0 7 0;
#X restore 428 528 pd partial~;
#N canvas 597 23 513 661 partial~ 0;
#X obj 39 27 inlet frequency;
#X obj 241 27 inlet end;
#X obj 152 27 inlet start;
#X obj 88 226 outlet~ signal;
#X obj 155 64 bng 15 250 50 0 empty empty empty 17 7 0 10 -262144 -1
-1;
#X obj 220 63 bng 15 250 50 0 empty empty empty 17 7 0 10 -262144 -1
-1;
#X msg 151 99 1 1000;
#X obj 116 187 *~;
#X msg 207 99 0 1000;
#X obj 152 153 line~ 0;
#X obj 59 99 osc~;
#X connect 0 0 10 0;
#X connect 1 0 5 0;
#X connect 2 0 4 0;
#X connect 4 0 6 0;
#X connect 5 0 8 0;
#X connect 6 0 9 0;
#X connect 7 0 3 0;
#X connect 8 0 9 0;
#X connect 9 0 7 1;
#X connect 10 0 7 0;
#X restore 519 528 pd partial~;
#N canvas 597 23 513 661 partial~ 0;
#X obj 39 27 inlet frequency;
#X obj 241 27 inlet end;
#X obj 152 27 inlet start;
#X obj 88 226 outlet~ signal;
#X obj 155 64 bng 15 250 50 0 empty empty empty 17 7 0 10 -262144 -1
-1;
#X obj 220 63 bng 15 250 50 0 empty empty empty 17 7 0 10 -262144 -1
-1;
#X msg 151 99 1 1000;
#X obj 116 187 *~;
#X msg 207 99 0 1000;
#X obj 152 153 line~ 0;
#X obj 59 99 osc~;
#X connect 0 0 10 0;
#X connect 1 0 5 0;
#X connect 2 0 4 0;
#X connect 4 0 6 0;
#X connect 5 0 8 0;
#X connect 6 0 9 0;
#X connect 7 0 3 0;
#X connect 8 0 9 0;
#X connect 9 0 7 1;
#X connect 10 0 7 0;
#X restore 603 528 pd partial~;
#N canvas 597 23 513 661 partial~ 0;
#X obj 39 27 inlet frequency;
#X obj 241 27 inlet end;
#X obj 152 27 inlet start;
#X obj 88 226 outlet~ signal;
#X obj 155 64 bng 15 250 50 0 empty empty empty 17 7 0 10 -262144 -1
-1;
#X obj 220 63 bng 15 250 50 0 empty empty empty 17 7 0 10 -262144 -1
-1;
#X msg 151 99 1 1000;
#X obj 116 187 *~;
#X msg 207 99 0 1000;
#X obj 152 153 line~ 0;
#X obj 59 99 osc~;
#X connect 0 0 10 0;
#X connect 1 0 5 0;
#X connect 2 0 4 0;
#X connect 4 0 6 0;
#X connect 5 0 8 0;
#X connect 6 0 9 0;
#X connect 7 0 3 0;
#X connect 8 0 9 0;
#X connect 9 0 7 1;
#X connect 10 0 7 0;
#X restore 696 528 pd partial~;
#N canvas 597 23 513 661 partial~ 0;
#X obj 39 27 inlet frequency;
#X obj 241 27 inlet end;
#X obj 152 27 inlet start;
#X obj 88 226 outlet~ signal;
#X obj 155 64 bng 15 250 50 0 empty empty empty 17 7 0 10 -262144 -1
-1;
#X obj 220 63 bng 15 250 50 0 empty empty empty 17 7 0 10 -262144 -1
-1;
#X msg 151 99 1 1000;
#X obj 116 187 *~;
#X msg 207 99 0 1000;
#X obj 152 153 line~ 0;
#X obj 59 99 osc~;
#X connect 0 0 10 0;
#X connect 1 0 5 0;
#X connect 2 0 4 0;
#X connect 4 0 6 0;
#X connect 5 0 8 0;
#X connect 6 0 9 0;
#X connect 7 0 3 0;
#X connect 8 0 9 0;
#X connect 9 0 7 1;
#X connect 10 0 7 0;
#X restore 777 528 pd partial~;
#N canvas 597 23 513 661 partial~ 0;
#X obj 39 27 inlet frequency;
#X obj 241 27 inlet end;
#X obj 152 27 inlet start;
#X obj 88 226 outlet~ signal;
#X obj 155 64 bng 15 250 50 0 empty empty empty 17 7 0 10 -262144 -1
-1;
#X obj 220 63 bng 15 250 50 0 empty empty empty 17 7 0 10 -262144 -1
-1;
#X msg 151 99 1 1000;
#X obj 116 187 *~;
#X msg 207 99 0 1000;
#X obj 152 153 line~ 0;
#X obj 59 99 osc~;
#X connect 0 0 10 0;
#X connect 1 0 5 0;
#X connect 2 0 4 0;
#X connect 4 0 6 0;
#X connect 5 0 8 0;
#X connect 6 0 9 0;
#X connect 7 0 3 0;
#X connect 8 0 9 0;
#X connect 9 0 7 1;
#X connect 10 0 7 0;
#X restore 870 528 pd partial~;
#X obj 44 479 mtof;
#X obj 158 478 mtof;
#X obj 252 476 mtof;
#X obj 332 475 mtof;
#X obj 410 477 mtof;
#X obj 495 477 mtof;
#X obj 578 472 mtof;
#X obj 664 472 mtof;
#X obj 753 474 mtof;
#X obj 840 474 mtof;
#X msg 42 452 42;
#X msg 158 448 46;
#X msg 249 444 52;
#X msg 328 444 57;
#X msg 406 442 60;
#X msg 489 442 66;
#X msg 572 437 70;
#X msg 658 439 76;
#X msg 747 441 81;
#X msg 834 441 86;
#X obj 64 59 unpackOSC;
#X obj 88 87 rawprint unpacked;
#X obj 83 140 routeOSC /iceburg/sensor;
#X obj 1056 237 loadbang;
#X connect 1 0 34 0;
#X connect 2 0 4 1;
#X connect 2 1 4 2;
#X connect 2 2 5 1;
#X connect 2 3 5 2;
#X connect 2 4 6 1;
#X connect 2 5 6 2;
#X connect 2 6 7 1;
#X connect 2 7 7 2;
#X connect 2 8 8 1;
#X connect 2 9 8 2;
#X connect 2 10 9 1;
#X connect 2 11 9 2;
#X connect 2 12 10 1;
#X connect 2 13 10 2;
#X connect 2 14 11 1;
#X connect 2 15 11 2;
#X connect 2 16 12 1;
#X connect 2 17 12 2;
#X connect 2 18 13 1;
#X connect 2 19 13 2;
#X connect 3 0 0 0;
#X connect 3 0 0 1;
#X connect 4 0 3 0;
#X connect 5 0 3 1;
#X connect 6 0 3 2;
#X connect 7 0 3 3;
#X connect 8 0 3 4;
#X connect 9 0 3 5;
#X connect 10 0 3 6;
#X connect 11 0 3 7;
#X connect 12 0 3 8;
#X connect 13 0 3 9;
#X connect 14 0 4 0;
#X connect 15 0 5 0;
#X connect 16 0 6 0;
#X connect 17 0 7 0;
#X connect 18 0 8 0;
#X connect 19 0 9 0;
#X connect 20 0 10 0;
#X connect 21 0 11 0;
#X connect 22 0 12 0;
#X connect 23 0 13 0;
#X connect 24 0 14 0;
#X connect 25 0 15 0;
#X connect 26 0 16 0;
#X connect 27 0 17 0;
#X connect 28 0 18 0;
#X connect 29 0 19 0;
#X connect 30 0 20 0;
#X connect 31 0 21 0;
#X connect 32 0 22 0;
#X connect 33 0 23 0;
#X connect 34 0 35 0;
#X connect 34 0 36 0;
#X connect 36 0 2 0;
#X connect 37 0 24 0;
#X connect 37 0 25 0;
#X connect 37 0 26 0;
#X connect 37 0 27 0;
#X connect 37 0 28 0;
#X connect 37 0 29 0;
#X connect 37 0 30 0;
#X connect 37 0 31 0;
#X connect 37 0 32 0;
#X connect 37 0 33 0;
#X coords 0 0 1 1 85 60 0;
