#N canvas 608 23 1188 612 10;
#X obj 464 422 dac~, f 5;
#X obj 532 31 netreceive -u -b 8000;
#X obj 532 62 unpackOSC;
#N canvas 317 420 1333 611 sensor~ 0;
#X obj 146 17 inlet sensordata;
#X obj 351 395 outlet~ audio;
#N canvas 370 23 1424 682 sensormap 0;
#X obj 434 8 inlet sensorparams;
#X text 563 6 PARAM #1 (INT - RANGE 0 to 9) : sensor num;
#X text 562 24 PARAM #2 (INT - RANGE 0 to 2) : sensor status;
#X obj 251 118 outlet partial0;
#X obj 358 118 outlet partial1;
#X obj 458 118 outlet partial2;
#X obj 563 118 outlet partial3;
#X obj 663 118 outlet partial4;
#X obj 769 118 outlet partial5;
#X obj 435 47 route 0 1 2 3 4 5, f 38;
#X connect 0 0 9 0;
#X connect 9 0 3 0;
#X connect 9 1 4 0;
#X connect 9 2 5 0;
#X connect 9 3 6 0;
#X connect 9 4 7 0;
#X connect 9 5 8 0;
#X restore 138 122 pd sensormap;
#N canvas 145 23 1096 724 partialmixer~ 0;
#X obj 367 287 outlet~ audio;
#X obj 144 45 inlet~ partial1;
#X obj 38 45 inlet~ partial0;
#X obj 252 45 inlet~ partial2;
#X obj 357 45 inlet~ partial3;
#X obj 458 45 inlet~ partial4;
#X obj 559 45 inlet~ partial5;
#X obj 39 87 *~ 0.1;
#X obj 146 87 *~ 0.1;
#X obj 256 87 *~ 0.1;
#X obj 357 87 *~ 0.1;
#X obj 459 87 *~ 0.1;
#X obj 566 87 *~ 0.1;
#X obj 383 184 throw~ allpartials;
#X obj 374 228 catch~ allpartials, f 70;
#X connect 1 0 8 0;
#X connect 2 0 7 0;
#X connect 3 0 9 0;
#X connect 4 0 10 0;
#X connect 5 0 11 0;
#X connect 6 0 12 0;
#X connect 7 0 13 0;
#X connect 8 0 13 0;
#X connect 9 0 13 0;
#X connect 10 0 13 0;
#X connect 11 0 13 0;
#X connect 12 0 13 0;
#X connect 14 0 0 0;
#X restore 355 343 pd partialmixer~;
#N canvas 542 315 917 743 partial~ 0;
#X obj 116 66 inlet frequency;
#X obj 255 647 outlet~ signal;
#X msg 188 449 1 1000;
#X obj 153 537 *~;
#X msg 244 449 0 1000;
#X obj 189 503 line~ 0;
#X obj 96 449 osc~;
#X text 412 62 PARAM #1 (INT - RANGE 0 to 9) : sensor num;
#X text 411 80 PARAM #2 (INT - RANGE 0 to 2) : sensor status;
#X text 339 128 TODO - figure out how to incorporate a more complex
version of the logic gate;
#X obj 283 64 inlet sensorstatus;
#X obj 284 97 int;
#X floatatom 284 130 5 0 0 0 - - -, f 5;
#X obj 375 450 phasor~;
#X msg 546 451 1 1000;
#X obj 505 570 *~;
#X msg 602 451 0 1000;
#X obj 547 505 line~ 0;
#X obj 269 604 +~;
#X obj 289 184 select 0 1 2;
#X obj 290 225 bng 15 250 50 0 empty empty empty 17 7 0 10 -262144
-1 -1;
#X obj 318 225 bng 15 250 50 0 empty empty empty 17 7 0 10 -262144
-1 -1;
#X obj 344 225 bng 15 250 50 0 empty empty empty 17 7 0 10 -262144
-1 -1;
#X obj 436 518 lop~;
#X obj 448 450 + 200;
#X connect 0 0 6 0;
#X connect 0 0 13 0;
#X connect 0 0 24 0;
#X connect 2 0 5 0;
#X connect 3 0 18 0;
#X connect 4 0 5 0;
#X connect 5 0 3 1;
#X connect 6 0 3 0;
#X connect 10 0 11 0;
#X connect 11 0 12 0;
#X connect 12 0 19 0;
#X connect 13 0 23 0;
#X connect 14 0 17 0;
#X connect 15 0 18 1;
#X connect 16 0 17 0;
#X connect 17 0 15 1;
#X connect 18 0 1 0;
#X connect 19 0 20 0;
#X connect 19 1 21 0;
#X connect 19 2 22 0;
#X connect 20 0 4 0;
#X connect 20 0 16 0;
#X connect 21 0 2 0;
#X connect 21 0 16 0;
#X connect 22 0 14 0;
#X connect 22 0 4 0;
#X connect 23 0 15 0;
#X connect 24 0 23 1;
#X restore 176 254 pd partial~;
#X obj 474 146 mtof;
#X obj 519 146 mtof;
#X obj 563 146 mtof;
#X obj 610 146 mtof;
#X obj 653 146 mtof;
#X obj 696 146 mtof;
#X msg 474 119 42;
#X msg 519 119 46;
#X msg 563 119 52;
#X msg 610 119 57;
#X msg 653 119 60;
#X msg 696 119 66;
#X obj 572 36 loadbang;
#N canvas 865 23 995 735 sensorstatus 0;
#X obj 37 22 inlet sensorparams;
#X obj 435 539 outlet isplaying;
#X obj 567 539 outlet notplaying;
#X obj 193 232 tabwrite sensors;
#N canvas 0 22 450 278 (subpatch) 0;
#X array sensors 6 float 3;
#A 0 0 0 0 0 0 0;
#X coords 0 0 6 2 200 140 1 0 0;
#X restore 191 265 graph;
#X obj 275 143 unpack f f;
#X obj 136 103 trigger bang bang bang list;
#X obj 198 197 float;
#X obj 249 197 float;
#X text 160 54 order of operations is really important here.;
#X text 161 70 numbers need to be set and then banged in reverse order
from osc message to reflect how it is stored in array;
#X obj 558 19 loadbang;
#X msg 561 93 \; sensors 0 0 0 0 0 0 0 0 0 0 0;
#X obj 486 298 unpack f f;
#X obj 447 263 tabminmax sensors;
#X obj 623 367 == 0;
#X obj 607 431 spigot;
#X obj 602 473 bng 25 250 50 0 empty empty empty 17 7 0 10 -262144
-1 -1;
#X obj 531 431 spigot;
#X obj 415 216 t b b;
#X obj 462 356 t b b;
#X obj 532 475 bng 25 250 50 0 empty empty empty 17 7 0 10 -262144
-1 -1;
#X obj 539 367 >= 1;
#X text 74 414 sensors table is 6 wide (for the six sensors) by 3 deep
(0 \, 1 \, or 2 for the state of the sensor);
#X connect 0 0 6 0;
#X connect 5 0 7 1;
#X connect 5 1 8 1;
#X connect 6 0 19 0;
#X connect 6 1 8 0;
#X connect 6 2 7 0;
#X connect 6 3 5 0;
#X connect 7 0 3 1;
#X connect 8 0 3 0;
#X connect 11 0 12 0;
#X connect 13 0 15 0;
#X connect 13 0 22 0;
#X connect 14 1 13 0;
#X connect 15 0 16 1;
#X connect 16 0 17 0;
#X connect 17 0 2 0;
#X connect 18 0 21 0;
#X connect 19 0 20 0;
#X connect 19 1 14 0;
#X connect 20 0 16 0;
#X connect 20 1 18 0;
#X connect 21 0 1 0;
#X connect 22 0 18 1;
#X restore 895 352 pd sensorstatus;
#X obj 853 437 outlet isplaying;
#X obj 987 436 outlet notplaying;
#X obj 894 390 bng 20 250 50 0 empty empty empty 17 7 0 10 -262144
-1 -1;
#X obj 982 389 bng 20 250 50 0 empty empty empty 17 7 0 10 -262144
-1 -1;
#X obj 572 63 bng 20 250 50 0 empty empty empty 17 7 0 10 -262144 -1
-1;
#N canvas 542 315 917 743 partial~ 0;
#X obj 116 66 inlet frequency;
#X obj 255 647 outlet~ signal;
#X msg 188 449 1 1000;
#X obj 153 537 *~;
#X msg 244 449 0 1000;
#X obj 189 503 line~ 0;
#X obj 96 449 osc~;
#X text 412 62 PARAM #1 (INT - RANGE 0 to 9) : sensor num;
#X text 411 80 PARAM #2 (INT - RANGE 0 to 2) : sensor status;
#X text 339 128 TODO - figure out how to incorporate a more complex
version of the logic gate;
#X obj 283 64 inlet sensorstatus;
#X obj 284 97 int;
#X floatatom 284 130 5 0 0 0 - - -, f 5;
#X obj 375 450 phasor~;
#X msg 546 451 1 1000;
#X obj 505 570 *~;
#X msg 602 451 0 1000;
#X obj 547 505 line~ 0;
#X obj 269 604 +~;
#X obj 289 184 select 0 1 2;
#X obj 290 225 bng 15 250 50 0 empty empty empty 17 7 0 10 -262144
-1 -1;
#X obj 318 225 bng 15 250 50 0 empty empty empty 17 7 0 10 -262144
-1 -1;
#X obj 344 225 bng 15 250 50 0 empty empty empty 17 7 0 10 -262144
-1 -1;
#X obj 436 518 lop~;
#X obj 448 450 + 200;
#X connect 0 0 6 0;
#X connect 0 0 13 0;
#X connect 0 0 24 0;
#X connect 2 0 5 0;
#X connect 3 0 18 0;
#X connect 4 0 5 0;
#X connect 5 0 3 1;
#X connect 6 0 3 0;
#X connect 10 0 11 0;
#X connect 11 0 12 0;
#X connect 12 0 19 0;
#X connect 13 0 23 0;
#X connect 14 0 17 0;
#X connect 15 0 18 1;
#X connect 16 0 17 0;
#X connect 17 0 15 1;
#X connect 18 0 1 0;
#X connect 19 0 20 0;
#X connect 19 1 21 0;
#X connect 19 2 22 0;
#X connect 20 0 4 0;
#X connect 20 0 16 0;
#X connect 21 0 2 0;
#X connect 21 0 16 0;
#X connect 22 0 14 0;
#X connect 22 0 4 0;
#X connect 23 0 15 0;
#X connect 24 0 23 1;
#X restore 256 254 pd partial~;
#N canvas 542 315 917 743 partial~ 0;
#X obj 116 66 inlet frequency;
#X obj 255 647 outlet~ signal;
#X msg 188 449 1 1000;
#X obj 153 537 *~;
#X msg 244 449 0 1000;
#X obj 189 503 line~ 0;
#X obj 96 449 osc~;
#X text 412 62 PARAM #1 (INT - RANGE 0 to 9) : sensor num;
#X text 411 80 PARAM #2 (INT - RANGE 0 to 2) : sensor status;
#X text 339 128 TODO - figure out how to incorporate a more complex
version of the logic gate;
#X obj 283 64 inlet sensorstatus;
#X obj 284 97 int;
#X floatatom 284 130 5 0 0 0 - - -, f 5;
#X obj 375 450 phasor~;
#X msg 546 451 1 1000;
#X obj 505 570 *~;
#X msg 602 451 0 1000;
#X obj 547 505 line~ 0;
#X obj 269 604 +~;
#X obj 289 184 select 0 1 2;
#X obj 290 225 bng 15 250 50 0 empty empty empty 17 7 0 10 -262144
-1 -1;
#X obj 318 225 bng 15 250 50 0 empty empty empty 17 7 0 10 -262144
-1 -1;
#X obj 344 225 bng 15 250 50 0 empty empty empty 17 7 0 10 -262144
-1 -1;
#X obj 436 518 lop~;
#X obj 448 450 + 200;
#X connect 0 0 6 0;
#X connect 0 0 13 0;
#X connect 0 0 24 0;
#X connect 2 0 5 0;
#X connect 3 0 18 0;
#X connect 4 0 5 0;
#X connect 5 0 3 1;
#X connect 6 0 3 0;
#X connect 10 0 11 0;
#X connect 11 0 12 0;
#X connect 12 0 19 0;
#X connect 13 0 23 0;
#X connect 14 0 17 0;
#X connect 15 0 18 1;
#X connect 16 0 17 0;
#X connect 17 0 15 1;
#X connect 18 0 1 0;
#X connect 19 0 20 0;
#X connect 19 1 21 0;
#X connect 19 2 22 0;
#X connect 20 0 4 0;
#X connect 20 0 16 0;
#X connect 21 0 2 0;
#X connect 21 0 16 0;
#X connect 22 0 14 0;
#X connect 22 0 4 0;
#X connect 23 0 15 0;
#X connect 24 0 23 1;
#X restore 336 254 pd partial~;
#N canvas 542 315 917 743 partial~ 0;
#X obj 116 66 inlet frequency;
#X obj 255 647 outlet~ signal;
#X msg 188 449 1 1000;
#X obj 153 537 *~;
#X msg 244 449 0 1000;
#X obj 189 503 line~ 0;
#X obj 96 449 osc~;
#X text 412 62 PARAM #1 (INT - RANGE 0 to 9) : sensor num;
#X text 411 80 PARAM #2 (INT - RANGE 0 to 2) : sensor status;
#X text 339 128 TODO - figure out how to incorporate a more complex
version of the logic gate;
#X obj 283 64 inlet sensorstatus;
#X obj 284 97 int;
#X floatatom 284 130 5 0 0 0 - - -, f 5;
#X obj 375 450 phasor~;
#X msg 546 451 1 1000;
#X obj 505 570 *~;
#X msg 602 451 0 1000;
#X obj 547 505 line~ 0;
#X obj 269 604 +~;
#X obj 289 184 select 0 1 2;
#X obj 290 225 bng 15 250 50 0 empty empty empty 17 7 0 10 -262144
-1 -1;
#X obj 318 225 bng 15 250 50 0 empty empty empty 17 7 0 10 -262144
-1 -1;
#X obj 344 225 bng 15 250 50 0 empty empty empty 17 7 0 10 -262144
-1 -1;
#X obj 436 518 lop~;
#X obj 448 450 + 200;
#X connect 0 0 6 0;
#X connect 0 0 13 0;
#X connect 0 0 24 0;
#X connect 2 0 5 0;
#X connect 3 0 18 0;
#X connect 4 0 5 0;
#X connect 5 0 3 1;
#X connect 6 0 3 0;
#X connect 10 0 11 0;
#X connect 11 0 12 0;
#X connect 12 0 19 0;
#X connect 13 0 23 0;
#X connect 14 0 17 0;
#X connect 15 0 18 1;
#X connect 16 0 17 0;
#X connect 17 0 15 1;
#X connect 18 0 1 0;
#X connect 19 0 20 0;
#X connect 19 1 21 0;
#X connect 19 2 22 0;
#X connect 20 0 4 0;
#X connect 20 0 16 0;
#X connect 21 0 2 0;
#X connect 21 0 16 0;
#X connect 22 0 14 0;
#X connect 22 0 4 0;
#X connect 23 0 15 0;
#X connect 24 0 23 1;
#X restore 422 254 pd partial~;
#N canvas 542 315 917 743 partial~ 0;
#X obj 116 66 inlet frequency;
#X obj 255 647 outlet~ signal;
#X msg 188 449 1 1000;
#X obj 153 537 *~;
#X msg 244 449 0 1000;
#X obj 189 503 line~ 0;
#X obj 96 449 osc~;
#X text 412 62 PARAM #1 (INT - RANGE 0 to 9) : sensor num;
#X text 411 80 PARAM #2 (INT - RANGE 0 to 2) : sensor status;
#X text 339 128 TODO - figure out how to incorporate a more complex
version of the logic gate;
#X obj 283 64 inlet sensorstatus;
#X obj 284 97 int;
#X floatatom 284 130 5 0 0 0 - - -, f 5;
#X obj 375 450 phasor~;
#X msg 546 451 1 1000;
#X obj 505 570 *~;
#X msg 602 451 0 1000;
#X obj 547 505 line~ 0;
#X obj 269 604 +~;
#X obj 289 184 select 0 1 2;
#X obj 290 225 bng 15 250 50 0 empty empty empty 17 7 0 10 -262144
-1 -1;
#X obj 318 225 bng 15 250 50 0 empty empty empty 17 7 0 10 -262144
-1 -1;
#X obj 344 225 bng 15 250 50 0 empty empty empty 17 7 0 10 -262144
-1 -1;
#X obj 436 518 lop~;
#X obj 448 450 + 200;
#X connect 0 0 6 0;
#X connect 0 0 13 0;
#X connect 0 0 24 0;
#X connect 2 0 5 0;
#X connect 3 0 18 0;
#X connect 4 0 5 0;
#X connect 5 0 3 1;
#X connect 6 0 3 0;
#X connect 10 0 11 0;
#X connect 11 0 12 0;
#X connect 12 0 19 0;
#X connect 13 0 23 0;
#X connect 14 0 17 0;
#X connect 15 0 18 1;
#X connect 16 0 17 0;
#X connect 17 0 15 1;
#X connect 18 0 1 0;
#X connect 19 0 20 0;
#X connect 19 1 21 0;
#X connect 19 2 22 0;
#X connect 20 0 4 0;
#X connect 20 0 16 0;
#X connect 21 0 2 0;
#X connect 21 0 16 0;
#X connect 22 0 14 0;
#X connect 22 0 4 0;
#X connect 23 0 15 0;
#X connect 24 0 23 1;
#X restore 505 254 pd partial~;
#N canvas 542 315 917 743 partial~ 0;
#X obj 116 66 inlet frequency;
#X obj 255 647 outlet~ signal;
#X msg 188 449 1 1000;
#X obj 153 537 *~;
#X msg 244 449 0 1000;
#X obj 189 503 line~ 0;
#X obj 96 449 osc~;
#X text 412 62 PARAM #1 (INT - RANGE 0 to 9) : sensor num;
#X text 411 80 PARAM #2 (INT - RANGE 0 to 2) : sensor status;
#X text 339 128 TODO - figure out how to incorporate a more complex
version of the logic gate;
#X obj 283 64 inlet sensorstatus;
#X obj 284 97 int;
#X floatatom 284 130 5 0 0 0 - - -, f 5;
#X obj 375 450 phasor~;
#X msg 546 451 1 1000;
#X obj 505 570 *~;
#X msg 602 451 0 1000;
#X obj 547 505 line~ 0;
#X obj 269 604 +~;
#X obj 289 184 select 0 1 2;
#X obj 290 225 bng 15 250 50 0 empty empty empty 17 7 0 10 -262144
-1 -1;
#X obj 318 225 bng 15 250 50 0 empty empty empty 17 7 0 10 -262144
-1 -1;
#X obj 344 225 bng 15 250 50 0 empty empty empty 17 7 0 10 -262144
-1 -1;
#X obj 436 518 lop~;
#X obj 448 450 + 200;
#X connect 0 0 6 0;
#X connect 0 0 13 0;
#X connect 0 0 24 0;
#X connect 2 0 5 0;
#X connect 3 0 18 0;
#X connect 4 0 5 0;
#X connect 5 0 3 1;
#X connect 6 0 3 0;
#X connect 10 0 11 0;
#X connect 11 0 12 0;
#X connect 12 0 19 0;
#X connect 13 0 23 0;
#X connect 14 0 17 0;
#X connect 15 0 18 1;
#X connect 16 0 17 0;
#X connect 17 0 15 1;
#X connect 18 0 1 0;
#X connect 19 0 20 0;
#X connect 19 1 21 0;
#X connect 19 2 22 0;
#X connect 20 0 4 0;
#X connect 20 0 16 0;
#X connect 21 0 2 0;
#X connect 21 0 16 0;
#X connect 22 0 14 0;
#X connect 22 0 4 0;
#X connect 23 0 15 0;
#X connect 24 0 23 1;
#X restore 595 254 pd partial~;
#X obj 146 50 send \$0-sensorparams;
#X obj 139 89 receive \$0-sensorparams;
#X obj 896 320 receive \$0-sensorparams;
#X connect 0 0 29 0;
#X connect 2 0 4 1;
#X connect 2 1 24 1;
#X connect 2 2 25 1;
#X connect 2 3 26 1;
#X connect 2 4 27 1;
#X connect 2 5 28 1;
#X connect 3 0 1 0;
#X connect 4 0 3 0;
#X connect 5 0 4 0;
#X connect 6 0 24 0;
#X connect 7 0 25 0;
#X connect 8 0 26 0;
#X connect 9 0 27 0;
#X connect 10 0 28 0;
#X connect 11 0 5 0;
#X connect 12 0 6 0;
#X connect 13 0 7 0;
#X connect 14 0 8 0;
#X connect 15 0 9 0;
#X connect 16 0 10 0;
#X connect 17 0 23 0;
#X connect 18 0 21 0;
#X connect 18 1 22 0;
#X connect 21 0 19 0;
#X connect 22 0 20 0;
#X connect 23 0 11 0;
#X connect 23 0 12 0;
#X connect 23 0 13 0;
#X connect 23 0 14 0;
#X connect 23 0 15 0;
#X connect 23 0 16 0;
#X connect 24 0 3 1;
#X connect 25 0 3 2;
#X connect 26 0 3 3;
#X connect 27 0 3 4;
#X connect 28 0 3 5;
#X connect 30 0 2 0;
#X connect 31 0 18 0;
#X restore 585 198 pd sensor~;
#X obj 545 91 print unpacked;
#N canvas 561 23 450 300 volume~ 0;
#X obj 41 116 *~ 1;
#X obj 153 30 inlet volumelevel;
#X obj 48 215 outlet~ audioleft;
#X obj 168 214 outlet~ audioright, f 42;
#X obj 44 31 inlet~ audioin;
#X text 91 116 THIS IS CURRENTLY MONO;
#X connect 0 0 2 0;
#X connect 0 0 3 0;
#X connect 1 0 0 1;
#X connect 4 0 0 0;
#X restore 451 383 pd volume~;
#N canvas 332 23 1251 998 ambient~ 0;
#X obj 107 221 bng 40 250 50 0 empty empty empty 17 7 0 10 -262144
-1 -1;
#X obj 220 553 line~;
#X obj 258 602 *~;
#X obj 332 800 outlet~ audio;
#X msg 39 428 1 1200;
#X obj 43 20 inlet startambient;
#X obj 326 17 inlet stopambient;
#X msg 232 113 stop;
#X obj 187 160 metro 6000;
#X text 396 774 ambient volume should be a little lower than other
sounds;
#X text 158 299 fade out sound;
#X text 230 134 stop repeating sound;
#X msg 182 347 0 400;
#X obj 314 72 t b b;
#X obj 197 318 receive fadeout;
#X obj 374 112 send fadeout;
#X text 160 220 softer ambient tone;
#N canvas 533 406 895 694 softoscbank~ 0;
#X obj 249 147 mtof;
#X obj 316 147 mtof;
#X msg 316 120 36;
#X obj 385 147 mtof;
#X msg 249 120 54;
#X msg 385 120 56;
#X obj 316 201 *~ 0.7;
#X obj 249 201 *~ 0.15;
#X obj 385 201 *~ 0.15;
#X text 432 122 whole tone scale, f 20;
#X obj 303 37 inlet bang;
#X obj 295 366 outlet~ oscbank;
#X obj 249 174 phasor~;
#X obj 316 174 phasor~;
#X obj 385 174 phasor~;
#X obj 571 35 inlet filterfreq;
#X floatatom 572 121 5 0 0 0 - - -, f 5;
#X obj 574 75 * 1000;
#X obj 561 170 + 75;
#X obj 303 307 lop~ 75;
#X connect 0 0 12 0;
#X connect 1 0 13 0;
#X connect 2 0 1 0;
#X connect 3 0 14 0;
#X connect 4 0 0 0;
#X connect 5 0 3 0;
#X connect 6 0 19 0;
#X connect 7 0 19 0;
#X connect 8 0 19 0;
#X connect 10 0 4 0;
#X connect 10 0 2 0;
#X connect 10 0 5 0;
#X connect 12 0 7 0;
#X connect 13 0 6 0;
#X connect 14 0 8 0;
#X connect 15 0 17 0;
#X connect 16 0 18 0;
#X connect 17 0 16 0;
#X connect 18 0 19 1;
#X connect 19 0 11 0;
#X restore 317 319 pd softoscbank~;
#X obj 494 20 inlet proximityamount;
#X text 441 622 to reduce the range to within 1;
#X text 643 22 proximity affects both timbre and volume;
#X msg 97 427 0 1600;
#X obj 89 386 delay 1400;
#X obj 383 676 + 0.3;
#X obj 390 622 * 0.7;
#X text 425 677 to ensure volume is at least 0.3;
#X obj 332 774 *~ 0.3;
#X floatatom 382 723 5 0 0 0 - - -, f 5;
#X text 428 724 current volume;
#X connect 0 0 4 0;
#X connect 0 0 17 0;
#X connect 0 0 22 0;
#X connect 1 0 2 0;
#X connect 2 0 26 0;
#X connect 4 0 1 0;
#X connect 5 0 8 0;
#X connect 6 0 13 0;
#X connect 7 0 8 0;
#X connect 8 0 0 0;
#X connect 12 0 1 0;
#X connect 13 0 7 0;
#X connect 13 1 15 0;
#X connect 14 0 12 0;
#X connect 17 0 2 1;
#X connect 18 0 17 1;
#X connect 18 0 24 0;
#X connect 21 0 1 0;
#X connect 22 0 21 0;
#X connect 23 0 27 0;
#X connect 24 0 23 0;
#X connect 26 0 3 0;
#X connect 27 0 26 1;
#X restore 354 319 pd ambient~;
#X obj 29 26 loadbang;
#X obj 325 259 bng 25 250 50 0 empty empty empty 17 7 0 10 -262144
-1 -1;
#X obj 254 259 bng 25 250 50 0 empty empty empty 17 7 0 10 -262144
-1 -1;
#X text 356 258 stop ambience;
#X text 162 258 start ambience;
#X obj 616 254 send stopambient;
#X obj 643 228 send startambient;
#X obj 314 86 receive stopambient;
#X obj 243 54 receive startambient;
#X obj 253 195 delay;
#X msg 253 170 6000;
#X obj 254 221 t b;
#X obj 778 154 send volumenum;
#X obj 508 352 receive volumenum;
#X obj 532 119 routeOSC /iceburg/proximity /iceburg/sensor /iceburg/volume
, f 62;
#X text 566 407 Concept and Execution by Nathan Koch;
#X text 567 426 Dependencies: creb osc zexy;
#X obj 35 82 delay 100;
#X msg 37 116 \; pd dsp 1;
#X text 10 183 ensure the audio is present;
#X text 12 197 before turning dsp on;
#X obj 212 24 loadbang;
#X connect 1 0 2 0;
#X connect 2 0 4 0;
#X connect 2 0 21 0;
#X connect 3 0 5 0;
#X connect 3 1 12 0;
#X connect 3 2 13 0;
#X connect 5 0 0 0;
#X connect 5 1 0 1;
#X connect 6 0 5 0;
#X connect 7 0 24 0;
#X connect 8 0 6 1;
#X connect 9 0 6 0;
#X connect 14 0 8 0;
#X connect 15 0 17 0;
#X connect 16 0 18 0;
#X connect 17 0 16 0;
#X connect 18 0 9 0;
#X connect 20 0 5 1;
#X connect 21 0 6 2;
#X connect 21 1 3 0;
#X connect 21 2 19 0;
#X connect 24 0 25 0;
#X connect 28 0 17 0;
#X coords 0 0 1 1 85 60 0;
