#N canvas 1024 23 1024 1107 10;
#X msg 158 491 disconnect;
#X obj 203 322 list prepend send;
#X obj 201 350 list trim;
#X obj 365 636 netsend -u -b;
#X obj 214 287 oscformat;
#X obj 535 485 list prepend send;
#X obj 533 513 list trim;
#X obj 546 450 oscformat;
#X obj 589 280 hsl 128 15 0 127 0 0 empty empty empty -2 -8 0 10 -262144
-1 -1 0 1;
#X obj 589 306 / 127;
#X msg 616 362 set iceburg volume;
#X msg 284 220 set iceburg sensor;
#X msg 286 250 format ii;
#X msg 601 334 format f;
#X msg 28 148 0 \$1;
#X msg 72 148 1 \$1;
#X msg 115 148 2 \$1;
#X msg 160 148 3 \$1;
#X msg 207 148 4 \$1;
#X msg 258 148 5 \$1;
#X obj 28 59 vradio 20 1 0 3 empty empty empty 0 -8 0 10 -262144 -1
-1 0;
#X obj 72 59 vradio 20 1 0 3 empty empty empty 0 -8 0 10 -262144 -1
-1 0;
#X obj 115 59 vradio 20 1 0 3 empty empty empty 0 -8 0 10 -262144 -1
-1 0;
#X obj 160 59 vradio 20 1 0 3 empty empty empty 0 -8 0 10 -262144 -1
-1 0;
#X obj 207 59 vradio 20 1 0 3 empty empty empty 0 -8 0 10 -262144 -1
-1 0;
#X obj 258 59 vradio 20 1 0 3 empty empty empty 0 -8 0 10 -262144 -1
-1 0;
#X text 27 16 Reflects the sensor state.;
#X text 27 34 0: Off;
#X text 85 34 1: Touch Event;
#X text 188 34 2: Correspondence Event;
#X obj 401 327 list prepend send;
#X obj 399 355 list trim;
#X obj 412 292 oscformat;
#X obj 532 60 hsl 128 15 0 127 0 0 empty empty empty -2 -8 0 10 -262144
-1 -1 12700 1;
#X obj 510 117 / 127;
#X msg 507 171 format f;
#X msg 521 204 set iceburg proximity;
#X msg 34 449 connect raspberrypi.local 8000;
#X msg 19 539 connect localhost 8000;
#X obj 435 68 tgl 15 0 empty empty empty 17 7 0 10 -262144 -1 -1 0
1;
#X connect 0 0 3 0;
#X connect 1 0 2 0;
#X connect 2 0 3 0;
#X connect 4 0 1 0;
#X connect 5 0 6 0;
#X connect 6 0 3 0;
#X connect 7 0 5 0;
#X connect 8 0 9 0;
#X connect 9 0 7 0;
#X connect 10 0 7 0;
#X connect 11 0 4 0;
#X connect 12 0 4 0;
#X connect 13 0 7 0;
#X connect 14 0 4 0;
#X connect 15 0 4 0;
#X connect 16 0 4 0;
#X connect 17 0 4 0;
#X connect 18 0 4 0;
#X connect 19 0 4 0;
#X connect 20 0 14 0;
#X connect 21 0 15 0;
#X connect 22 0 16 0;
#X connect 23 0 17 0;
#X connect 24 0 18 0;
#X connect 25 0 19 0;
#X connect 30 0 31 0;
#X connect 31 0 3 0;
#X connect 32 0 30 0;
#X connect 33 0 34 0;
#X connect 34 0 32 0;
#X connect 35 0 32 0;
#X connect 36 0 32 0;
#X connect 37 0 3 0;
#X connect 38 0 3 0;
#X connect 39 0 32 0;
