#N canvas 1024 23 1024 1107 10;
#X obj 80 36 inlet midinote;
#X obj 204 1025 outlet~ audio;
#X obj 103 103 unpack 0 0;
#X obj 102 149 swap, f 5;
#X obj 72 214 mtof;
#X obj 60 264 float, f 6;
#X obj 876 192 hsl 128 15 0 1 0 0 empty empty empty -2 -8 0 10 -262144
-1 -1 0 1;
#X obj 243 917 *~;
#X msg 233 46 52 100;
#X msg 316 46 52 0;
#X msg 236 67 54 100;
#X msg 311 65 54 0;
#X obj 173 204 select 0;
#X obj 210 231 bang;
#N canvas 0 22 883 874 ambient_amplitude_envelope~ 0;
#X obj 430 291 bng 15 250 50 0 empty empty empty 17 7 0 10 -262144
-1 -1;
#X text 325 236 amplitude envelope;
#X obj 246 191 0.9;
#X obj 248 227 nbx 5 14 -1e+37 1e+37 0 0 empty empty empty 0 -8 0 10
-262144 -1 -1 0 256;
#X obj 243 165 expr pow($f1/127 \, 1.5);
#X obj 237 94 inlet velocity;
#X obj 234 353 outlet~ curved_line;
#X obj 245 258 cadsr~ 1300 0 100 4600 0.1 0 -0.5;
#X connect 2 0 3 0;
#X connect 3 0 7 0;
#X connect 4 0 2 0;
#X connect 5 0 4 0;
#X connect 7 0 6 0;
#X connect 7 1 0 0;
#X restore 464 784 pd ambient_amplitude_envelope~;
#X obj 214 815 xfade~;
#N canvas 1024 23 1024 1107 ambient_timbre_attack_envelope~ 0;
#X obj 430 291 bng 15 250 50 0 empty empty empty 17 7 0 10 -262144
-1 -1;
#X obj 246 191 0.9;
#X obj 248 227 nbx 5 14 -1e+37 1e+37 0 0 empty empty empty 0 -8 0 10
-262144 -1 -1 0 256;
#X obj 203 62 inlet velocity;
#X obj 234 353 outlet~ curved_line;
#X obj 416 111 expr pow($f1/127 \, 0.5);
#X text 325 236 timbre attack envelope;
#X text 413 90 ot sure we need vel affecting timbre;
#X obj 211 116 select 0;
#X msg 207 150 0, f 9;
#X obj 245 258 cadsr~ 340 555 100 5305 0.35 -0.2 -0.25;
#X msg 278 152 0.6;
#X connect 1 0 2 0;
#X connect 2 0 10 0;
#X connect 3 0 8 0;
#X connect 8 0 9 0;
#X connect 8 1 11 0;
#X connect 9 0 1 0;
#X connect 10 0 4 0;
#X connect 10 1 0 0;
#X connect 11 0 1 0;
#X restore 252 278 pd ambient_timbre_attack_envelope~;
#X obj 435 368 metro 5;
#X obj 438 310 loadbang;
#X msg 440 336 1;
#N canvas 1024 23 1024 1107 ambient_timbre_decay_envelope~ 0;
#X obj 430 291 bng 15 250 50 0 empty empty empty 17 7 0 10 -262144
-1 -1;
#X obj 246 191 0.9;
#X obj 248 227 nbx 5 14 -1e+37 1e+37 0 0 empty empty empty 0 -8 0 10
-262144 -1 -1 0 256;
#X obj 203 62 inlet velocity;
#X obj 234 353 outlet~ curved_line;
#X obj 416 111 expr pow($f1/127 \, 0.5);
#X text 325 236 timbre attack envelope;
#X text 413 90 ot sure we need vel affecting timbre;
#X obj 211 116 select 0;
#X msg 207 150 0, f 9;
#X obj 245 258 cadsr~ 3300 0 100 2700 -0.5 0 -0.25;
#X msg 278 152 0.4;
#X connect 1 0 2 0;
#X connect 2 0 10 0;
#X connect 3 0 8 0;
#X connect 8 0 9 0;
#X connect 8 1 11 0;
#X connect 9 0 1 0;
#X connect 10 0 4 0;
#X connect 10 1 0 0;
#X connect 11 0 1 0;
#X restore 533 274 pd ambient_timbre_decay_envelope~;
#X obj 342 407 snapshot~;
#X obj 506 408 snapshot~;
#X obj 542 437 vsl 15 80 0 1 0 0 empty empty empty 0 -9 0 10 -262144
-1 -1 0 1;
#X obj 892 33 inlet proximity;
#X obj 893 63 nbx 5 14 -1e+37 1e+37 0 0 empty empty empty 0 -8 0 10
-262144 -1 -1 0 256;
#X obj 898 117 line;
#X obj 997 35 tgl 15 0 empty empty empty 17 7 0 10 -262144 -1 -1 0
1;
#X msg 897 84 \$1 2500;
#X obj 73 307 sig~;
#X obj 146 412 +~;
#X obj 120 273 random~ 0.33;
#X obj 122 301 *~ 0.4;
#X text 225 13 some example notes #1 MIDI number \, #2 velocity;
#X obj 215 104 rawprint note_received;
#X obj 213 976 *~ 0.1;
#X obj 185 870 lores~ 10000;
#X text 273 870 getting some weird aliasing crunch - this is a hack!
;
#N canvas 0 22 663 617 ambientWaves~ 0;
#X obj 91 194 tabosc4~ ambient_wave_1;
#X obj 247 191 tabosc4~ ambient_wave_2;
#X obj 426 188 tabosc4~ ambient_wave_3;
#X obj 217 338 xfade~;
#X obj 261 425 xfade~;
#X obj 260 502 outlet~ audio;
#X obj 151 73 inlet~ freq;
#X obj 327 70 inlet xfade1;
#X obj 493 69 inlet xfade2;
#X connect 0 0 3 0;
#X connect 1 0 3 1;
#X connect 2 0 4 1;
#X connect 3 0 4 0;
#X connect 4 0 5 0;
#X connect 6 0 0 0;
#X connect 6 0 1 0;
#X connect 6 0 2 0;
#X connect 7 0 3 2;
#X connect 8 0 4 2;
#X restore 163 546 pd ambientWaves~;
#X obj 383 438 vsl 15 80 0 1 0 0 empty empty empty 0 -9 0 10 -262144
-1 -1 0 1;
#N canvas 0 23 1024 1107 proximityWaves~ 0;
#X obj 266 68 inlet~ freq;
#X obj 615 71 inlet xfade;
#X obj 343 762 outlet~ audio;
#X obj 174 308 tabosc4~ ambient_wave_4;
#X obj 339 309 tabosc4~ ambient_wave_5;
#X obj 372 661 xfade~;
#X connect 0 0 3 0;
#X connect 0 0 4 0;
#X connect 1 0 5 2;
#X connect 3 0 5 0;
#X connect 4 0 5 1;
#X connect 5 0 2 0;
#X restore 291 544 pd proximityWaves~;
#N canvas 0 22 663 617 ambientWaves~ 0;
#X obj 91 194 tabosc4~ ambient_wave_1;
#X obj 247 191 tabosc4~ ambient_wave_2;
#X obj 426 188 tabosc4~ ambient_wave_3;
#X obj 217 338 xfade~;
#X obj 261 425 xfade~;
#X obj 260 502 outlet~ audio;
#X obj 151 73 inlet~ freq;
#X obj 327 70 inlet xfade1;
#X obj 493 69 inlet xfade2;
#X connect 0 0 3 0;
#X connect 1 0 3 1;
#X connect 2 0 4 1;
#X connect 3 0 4 0;
#X connect 4 0 5 0;
#X connect 6 0 0 0;
#X connect 6 0 1 0;
#X connect 6 0 2 0;
#X connect 7 0 3 2;
#X connect 8 0 4 2;
#X restore 52 547 pd ambientWaves~;
#X obj 22 643 *~ 0.5;
#X obj 86 644 *~ 0.5;
#X obj 280 428 +~;
#X obj 261 334 random~ 0.37;
#X obj 263 362 *~ 0.55;
#X connect 0 0 2 0;
#X connect 0 0 34 0;
#X connect 2 0 3 0;
#X connect 2 1 3 1;
#X connect 3 0 12 0;
#X connect 3 0 14 0;
#X connect 3 0 16 0;
#X connect 3 0 20 0;
#X connect 3 1 4 0;
#X connect 4 0 5 1;
#X connect 5 0 29 0;
#X connect 7 0 35 0;
#X connect 8 0 2 0;
#X connect 9 0 2 0;
#X connect 10 0 2 0;
#X connect 11 0 2 0;
#X connect 12 1 13 0;
#X connect 13 0 5 0;
#X connect 14 0 7 1;
#X connect 15 0 36 0;
#X connect 16 0 21 0;
#X connect 17 0 22 0;
#X connect 17 0 21 0;
#X connect 18 0 19 0;
#X connect 19 0 17 0;
#X connect 20 0 22 0;
#X connect 21 0 38 1;
#X connect 21 0 39 0;
#X connect 21 0 40 1;
#X connect 22 0 38 2;
#X connect 22 0 23 0;
#X connect 24 0 25 0;
#X connect 25 0 28 0;
#X connect 26 0 15 2;
#X connect 26 0 6 0;
#X connect 27 0 25 0;
#X connect 28 0 26 0;
#X connect 29 0 30 0;
#X connect 29 0 41 0;
#X connect 29 0 44 0;
#X connect 30 0 38 0;
#X connect 31 0 32 0;
#X connect 32 0 30 1;
#X connect 35 0 1 0;
#X connect 36 0 7 0;
#X connect 38 0 43 0;
#X connect 40 0 15 1;
#X connect 41 0 42 0;
#X connect 42 0 15 0;
#X connect 43 0 15 0;
#X connect 44 0 40 0;
#X connect 45 0 46 0;
#X connect 46 0 44 1;
#X coords 0 1107 1 1106 300 100 0;
