#N canvas 615 23 1024 1107 10;
#X obj 20 47 hradio 15 1 0 7 empty empty empty 0 -8 0 10 -262144 -1
-1 0;
#X obj 177 236 *~;
#X obj 302 236 *~;
#X obj 416 235 *~;
#X obj 302 385 *~ 1;
#X obj 357 347 != 0;
#X obj 200 211 == 1;
#X obj 326 211 == 2;
#X obj 438 210 == 3;
#X obj 302 426 outlet~ audio;
#X obj 20 8 inlet num;
#X obj 143 8 inlet~ w1;
#X obj 283 8 inlet~ w2;
#X obj 427 8 inlet~ w3;
#X obj 518 8 inlet~ w4;
#X obj 623 8 inlet~ w5;
#X obj 740 8 inlet~ w6;
#X obj 487 235 *~;
#X obj 612 235 *~;
#X obj 726 234 *~;
#X obj 301 324 *~ 0.15;
#X obj 510 210 == 4;
#X obj 636 210 == 5;
#X obj 748 209 == 6;
#X connect 0 0 6 0;
#X connect 0 0 7 0;
#X connect 0 0 5 0;
#X connect 0 0 8 0;
#X connect 0 0 21 0;
#X connect 0 0 22 0;
#X connect 0 0 23 0;
#X connect 1 0 20 0;
#X connect 2 0 20 0;
#X connect 3 0 20 0;
#X connect 4 0 9 0;
#X connect 5 0 4 1;
#X connect 6 0 1 1;
#X connect 7 0 2 1;
#X connect 8 0 3 1;
#X connect 10 0 0 0;
#X connect 11 0 1 0;
#X connect 12 0 2 0;
#X connect 13 0 3 0;
#X connect 14 0 17 0;
#X connect 15 0 18 0;
#X connect 16 0 19 0;
#X connect 17 0 20 0;
#X connect 18 0 20 0;
#X connect 19 0 20 0;
#X connect 20 0 4 0;
#X connect 21 0 17 1;
#X connect 22 0 18 1;
#X connect 23 0 19 1;
