#N canvas 250 112 733 444 10;
#N canvas 676 246 449 300 init 0;
#X obj 224 21 loadbang;
#X msg 224 72 \; \$1-a \$2 \; \$1-d \$3 \; \$1-s \$4 \; \$1-r \$5 \;
\$1-a-curve \$6 \; \$1-d-curve \$7 \; \$1-r-curve \$8;
#X obj 224 46 list \$0 \$1 \$2 \$3 \$4 \$5 \$6 \$7;
#X connect 0 0 2 0;
#X connect 2 0 1 0;
#X restore 85 173 pd init;
#X obj 58 244 outlet~;
#X obj 190 136 inlet;
#X obj 279 235 s \$0-s;
#X obj 190 235 s \$0-a;
#X obj 235 235 s \$0-d;
#X obj 323 235 s \$0-r;
#X obj 57 120 inlet;
#X obj 190 183 route attack decay sustain release attack-curve decay-curve
release-curve;
#X obj 367 235 s \$0-a-curve;
#X obj 449 236 s \$0-d-curve;
#X obj 528 236 s \$0-r-curve;
#X text 81 14 Solipp's curved ADSR-envelope;
#N canvas 272 134 888 551 envelope 0;
#X obj 492 528 outlet~;
#X obj 491 487 curve~;
#X obj 126 51 inlet;
#X obj 126 110 sel 0;
#X obj 199 162 t b;
#X msg 126 158 stop;
#X text 66 122 if zero;
#X text 67 139 release;
#X text 47 156 and cancel;
#X text 78 173 decay;
#X text 338 285 on attack \, set a;
#X text 332 318 recall sustain value;
#X text 377 388 pack with decay time;
#X text 693 309 on release ramp;
#X text 694 326 back to zero;
#X obj 504 340 * 0.01;
#X text 365 365 multiply by peak level;
#X text 334 299 delay for sustain;
#X text 330 341 convert from percent;
#X obj 481 84 r \$0-a;
#X obj 541 86 r \$0-d;
#X obj 601 87 r \$0-s;
#X obj 664 87 r \$0-r;
#X obj 257 256 r \$0-a-curve;
#X obj 568 359 r \$0-d-curve;
#X obj 756 264 r \$0-r-curve;
#X obj 200 250 f;
#X obj 511 365 *;
#X obj 510 314 f;
#X obj 466 277 del;
#X obj 699 290 pack 0 0 0;
#X obj 511 389 pack 0 0 0;
#X obj 200 277 pack 0 0 0;
#X obj 126 80 t f f;
#X obj 621 520 outlet;
#X connect 1 0 0 0;
#X connect 1 1 34 0;
#X connect 2 0 33 0;
#X connect 3 0 5 0;
#X connect 3 0 30 0;
#X connect 3 1 4 0;
#X connect 4 0 26 0;
#X connect 4 0 29 0;
#X connect 5 0 29 0;
#X connect 15 0 27 0;
#X connect 19 0 29 1;
#X connect 19 0 32 1;
#X connect 20 0 31 1;
#X connect 21 0 28 1;
#X connect 22 0 30 1;
#X connect 23 0 32 2;
#X connect 24 0 31 2;
#X connect 25 0 30 2;
#X connect 26 0 32 0;
#X connect 27 0 31 0;
#X connect 28 0 15 0;
#X connect 29 0 28 0;
#X connect 30 0 1 0;
#X connect 31 0 1 0;
#X connect 32 0 1 0;
#X connect 33 0 3 0;
#X connect 33 1 26 1;
#X connect 33 1 27 1;
#X restore 57 204 pd envelope;
#X obj 120 247 outlet;
#X connect 2 0 8 0;
#X connect 7 0 13 0;
#X connect 8 0 4 0;
#X connect 8 1 5 0;
#X connect 8 2 3 0;
#X connect 8 3 6 0;
#X connect 8 4 9 0;
#X connect 8 5 10 0;
#X connect 8 6 11 0;
#X connect 13 0 1 0;
#X connect 13 1 14 0;
