#N canvas 620 23 1414 1096 10;
#X obj 157 28 inlet freq;
#X obj 245 28 inlet facetNum;
#X obj 355 28 inlet facetStatus;
#X obj 476 28 inlet facetSum;
#X obj 444 1059 outlet~ audio;
#X obj 157 54 mtof;
#N canvas 368 23 1024 1107 wavetables 0;
#X obj 296 44 inlet~ freq;
#X obj 59 106 tabosc4~ facet_w1;
#X obj 183 106 tabosc4~ facet_w2;
#X obj 301 106 tabosc4~ facet_w3;
#X obj 424 106 tabosc4~ facet_w4;
#X obj 542 106 tabosc4~ facet_w5;
#X obj 662 106 tabosc4~ facet_w6;
#X obj 59 135 outlet~ w1;
#X obj 183 135 outlet~ w2;
#X obj 301 135 outlet~ w3;
#X obj 424 135 outlet~ w4;
#X obj 542 135 outlet~ w5;
#X obj 662 135 outlet~ w6;
#X connect 0 0 1 0;
#X connect 0 0 2 0;
#X connect 0 0 3 0;
#X connect 0 0 4 0;
#X connect 0 0 5 0;
#X connect 0 0 6 0;
#X connect 1 0 7 0;
#X connect 2 0 8 0;
#X connect 3 0 9 0;
#X connect 4 0 10 0;
#X connect 5 0 11 0;
#X connect 6 0 12 0;
#X restore 157 292 pd wavetables, f 15;
#X obj 214 142 sig~;
#X obj 159 355 audio_selector~;
#X obj 245 59 s \$0-facetNum;
#X obj 67 292 r \$0-facetNum;
#N canvas 368 23 1024 1107 attack_wavetables 0;
#X obj 296 44 inlet~ freq;
#X obj 59 135 outlet~ w1;
#X obj 183 135 outlet~ w2;
#X obj 301 135 outlet~ w3;
#X obj 424 135 outlet~ w4;
#X obj 542 135 outlet~ w5;
#X obj 662 135 outlet~ w6;
#X obj 59 106 tabosc4~ facet_w7;
#X obj 183 106 tabosc4~ facet_w8;
#X obj 301 106 tabosc4~ facet_w9;
#X obj 424 106 tabosc4~ facet_w10;
#X obj 542 106 tabosc4~ facet_w11;
#X obj 662 106 tabosc4~ facet_w12;
#X connect 0 0 7 0;
#X connect 0 0 8 0;
#X connect 0 0 9 0;
#X connect 0 0 10 0;
#X connect 0 0 11 0;
#X connect 0 0 12 0;
#X connect 7 0 1 0;
#X connect 8 0 2 0;
#X connect 9 0 3 0;
#X connect 10 0 4 0;
#X connect 11 0 5 0;
#X connect 12 0 6 0;
#X restore 349 292 pd attack_wavetables;
#X obj 348 353 audio_selector~;
#X obj 263 292 r \$0-facetNum;
#N canvas 368 23 1024 1107 wavetables 0;
#X obj 296 44 inlet~ freq;
#X obj 59 106 tabosc4~ facet_w1;
#X obj 183 106 tabosc4~ facet_w2;
#X obj 301 106 tabosc4~ facet_w3;
#X obj 424 106 tabosc4~ facet_w4;
#X obj 542 106 tabosc4~ facet_w5;
#X obj 662 106 tabosc4~ facet_w6;
#X obj 59 135 outlet~ w1;
#X obj 183 135 outlet~ w2;
#X obj 301 135 outlet~ w3;
#X obj 424 135 outlet~ w4;
#X obj 542 135 outlet~ w5;
#X obj 662 135 outlet~ w6, f 15;
#X connect 0 0 1 0;
#X connect 0 0 2 0;
#X connect 0 0 3 0;
#X connect 0 0 4 0;
#X connect 0 0 5 0;
#X connect 0 0 6 0;
#X connect 1 0 7 0;
#X connect 2 0 8 0;
#X connect 3 0 9 0;
#X connect 4 0 10 0;
#X connect 5 0 11 0;
#X connect 6 0 12 0;
#X restore 666 293 pd wavetables;
#N canvas 368 23 1024 1107 wavetables 0;
#X obj 296 44 inlet~ freq;
#X obj 59 106 tabosc4~ facet_w1;
#X obj 183 106 tabosc4~ facet_w2;
#X obj 301 106 tabosc4~ facet_w3;
#X obj 424 106 tabosc4~ facet_w4;
#X obj 542 106 tabosc4~ facet_w5;
#X obj 662 106 tabosc4~ facet_w6;
#X obj 59 135 outlet~ w1;
#X obj 183 135 outlet~ w2;
#X obj 301 135 outlet~ w3;
#X obj 424 135 outlet~ w4;
#X obj 542 135 outlet~ w5;
#X obj 662 135 outlet~ w6, f 15;
#X connect 0 0 1 0;
#X connect 0 0 2 0;
#X connect 0 0 3 0;
#X connect 0 0 4 0;
#X connect 0 0 5 0;
#X connect 0 0 6 0;
#X connect 1 0 7 0;
#X connect 2 0 8 0;
#X connect 3 0 9 0;
#X connect 4 0 10 0;
#X connect 5 0 11 0;
#X connect 6 0 12 0;
#X restore 578 293 pd wavetables;
#X obj 573 353 audio_selector~, f 24;
#X obj 487 293 r \$0-facetNum;
#X obj 307 465 xfade~;
#X obj 434 684 xfade~;
#X obj 444 989 *~;
#X obj 476 57 s \$0-facetSum;
#X obj 356 58 s \$0-facetStatus;
#X obj 981 118 r \$0-facetStatus;
#X obj 858 203 select 2 1 0;
#X msg 858 232 1;
#X msg 892 232 0;
#X obj 858 261 s \$0-correspondence;
#X obj 988 295 select 2 1 0;
#X obj 933 392 expr pow($f1/6.0 \, 0.75);
#X msg 1082 392 0;
#X obj 990 444 cadsr~ 155 327 46 1513 0.4 -0.25 -0.55;
#X obj 990 478 throw~ \$0-ampEnv;
#X obj 462 954 catch~ \$0-ampEnv;
#X obj 981 145 t f f b;
#X msg 1123 200 1;
#X obj 1123 228 cadsr~ 884 2500 0 0;
#X obj 1123 256 snapshot~;
#X obj 733 28 loadbang;
#X obj 733 80 metro 5;
#X msg 733 53 1;
#X obj 1123 284 s \$0-partialEnv;
#X obj 733 107 s \$0-snapshotSpeed;
#X obj 1250 228 r \$0-snapshotSpeed;
#X obj 343 432 r \$0-partialEnv;
#X obj 530 542 r \$0-correspondence;
#X obj 531 599 line;
#X msg 530 570 \$0 4000;
#X obj 439 829 lores~;
#X obj 937 345 float;
#X obj 897 295 r \$0-facetSum;
#X obj 533 683 r \$0-facetSum;
#X obj 533 713 expr pow($f1/6.0 \, 0.75);
#X obj 535 743 * 2400;
#X obj 66 142 random~ 0.3;
#X obj 66 167 *~ 0.6;
#X obj 159 256 +~;
#X obj 570 111 * 3;
#X obj 646 111 * 1.5;
#X obj 570 136 sig~;
#X obj 646 136 sig~;
#X obj 472 142 random~ 0.27;
#X obj 472 168 *~ 0.7;
#X obj 578 257 +~;
#X obj 653 256 +~;
#X obj 157 80 s \$0-freq;
#X obj 214 114 r \$0-freq;
#X obj 570 86 r \$0-freq;
#X obj 646 86 r \$0-freq;
#X text 1069 337 TODO: this may cache the value and behave weirdly.
look at max sketch;
#X connect 0 0 5 0;
#X connect 1 0 9 0;
#X connect 2 0 22 0;
#X connect 3 0 21 0;
#X connect 5 0 65 0;
#X connect 6 0 8 1;
#X connect 6 1 8 2;
#X connect 6 2 8 3;
#X connect 6 3 8 4;
#X connect 6 4 8 5;
#X connect 6 5 8 6;
#X connect 7 0 56 1;
#X connect 7 0 11 0;
#X connect 8 0 18 0;
#X connect 10 0 8 0;
#X connect 11 0 12 1;
#X connect 11 1 12 2;
#X connect 11 2 12 3;
#X connect 11 3 12 4;
#X connect 11 4 12 5;
#X connect 11 5 12 6;
#X connect 12 0 18 1;
#X connect 13 0 12 0;
#X connect 14 0 16 4;
#X connect 14 1 16 5;
#X connect 14 2 16 6;
#X connect 15 3 16 1;
#X connect 15 4 16 2;
#X connect 15 5 16 3;
#X connect 16 0 19 1;
#X connect 17 0 16 0;
#X connect 18 0 19 0;
#X connect 19 0 48 0;
#X connect 20 0 4 0;
#X connect 23 0 34 0;
#X connect 24 0 25 0;
#X connect 24 1 26 0;
#X connect 24 2 26 0;
#X connect 25 0 27 0;
#X connect 26 0 27 0;
#X connect 28 0 49 0;
#X connect 28 1 49 0;
#X connect 28 2 30 0;
#X connect 29 0 31 0;
#X connect 30 0 31 0;
#X connect 31 0 32 0;
#X connect 33 0 20 1;
#X connect 34 0 24 0;
#X connect 34 1 28 0;
#X connect 34 2 35 0;
#X connect 35 0 36 0;
#X connect 36 0 37 0;
#X connect 37 0 41 0;
#X connect 38 0 40 0;
#X connect 39 0 42 0;
#X connect 40 0 39 0;
#X connect 43 0 37 0;
#X connect 44 0 18 2;
#X connect 45 0 47 0;
#X connect 46 0 19 2;
#X connect 47 0 46 0;
#X connect 48 0 20 0;
#X connect 49 0 29 0;
#X connect 50 0 49 1;
#X connect 51 0 52 0;
#X connect 52 0 53 0;
#X connect 53 0 48 1;
#X connect 54 0 55 0;
#X connect 55 0 56 0;
#X connect 56 0 6 0;
#X connect 57 0 59 0;
#X connect 58 0 60 0;
#X connect 59 0 63 1;
#X connect 60 0 64 1;
#X connect 61 0 62 0;
#X connect 62 0 63 0;
#X connect 62 0 64 0;
#X connect 63 0 15 0;
#X connect 64 0 14 0;
#X connect 66 0 7 0;
#X connect 67 0 57 0;
#X connect 68 0 58 0;
