#N canvas 620 23 1414 1096 10;
#X obj 157 28 inlet freq;
#X obj 245 28 inlet facetNum;
#X obj 355 28 inlet facetStatus;
#X obj 476 28 inlet facetSum;
#X obj 458 1040 outlet~ audio;
#X obj 155 72 mtof;
#N canvas 368 23 1024 1107 wavetables 0;
#X obj 296 44 inlet~ freq;
#X obj 59 106 tabosc4~ facet_w1;
#X obj 183 106 tabosc4~ facet_w2;
#X obj 301 106 tabosc4~ facet_w3;
#X obj 424 106 tabosc4~ facet_w4;
#X obj 542 106 tabosc4~ facet_w5;
#X obj 662 106 tabosc4~ facet_w6;
#X obj 59 135 outlet~ w1;
#X obj 183 135 outlet~ w2;
#X obj 301 135 outlet~ w3;
#X obj 424 135 outlet~ w4;
#X obj 542 135 outlet~ w5;
#X obj 662 135 outlet~ w6;
#X connect 0 0 1 0;
#X connect 0 0 2 0;
#X connect 0 0 3 0;
#X connect 0 0 4 0;
#X connect 0 0 5 0;
#X connect 0 0 6 0;
#X connect 1 0 7 0;
#X connect 2 0 8 0;
#X connect 3 0 9 0;
#X connect 4 0 10 0;
#X connect 5 0 11 0;
#X connect 6 0 12 0;
#X restore 156 242 pd wavetables, f 15;
#X obj 155 103 sig~;
#X obj 158 305 audio_selector~;
#X obj 245 59 s \$0-facetNum;
#X obj 66 242 r \$0-facetNum;
#N canvas 368 23 1024 1107 attack_wavetables 0;
#X obj 296 44 inlet~ freq;
#X obj 59 135 outlet~ w1;
#X obj 183 135 outlet~ w2;
#X obj 301 135 outlet~ w3;
#X obj 424 135 outlet~ w4;
#X obj 542 135 outlet~ w5;
#X obj 662 135 outlet~ w6;
#X obj 59 106 tabosc4~ facet_w7;
#X obj 183 106 tabosc4~ facet_w8;
#X obj 301 106 tabosc4~ facet_w9;
#X obj 424 106 tabosc4~ facet_w10;
#X obj 542 106 tabosc4~ facet_w11;
#X obj 662 106 tabosc4~ facet_w12;
#X connect 0 0 7 0;
#X connect 0 0 8 0;
#X connect 0 0 9 0;
#X connect 0 0 10 0;
#X connect 0 0 11 0;
#X connect 0 0 12 0;
#X connect 7 0 1 0;
#X connect 8 0 2 0;
#X connect 9 0 3 0;
#X connect 10 0 4 0;
#X connect 11 0 5 0;
#X connect 12 0 6 0;
#X restore 348 242 pd attack_wavetables;
#X obj 347 303 audio_selector~;
#X obj 262 242 r \$0-facetNum;
#N canvas 368 23 1024 1107 wavetables 0;
#X obj 296 44 inlet~ freq;
#X obj 59 106 tabosc4~ facet_w1;
#X obj 183 106 tabosc4~ facet_w2;
#X obj 301 106 tabosc4~ facet_w3;
#X obj 424 106 tabosc4~ facet_w4;
#X obj 542 106 tabosc4~ facet_w5;
#X obj 662 106 tabosc4~ facet_w6;
#X obj 59 135 outlet~ w1;
#X obj 183 135 outlet~ w2;
#X obj 301 135 outlet~ w3;
#X obj 424 135 outlet~ w4;
#X obj 542 135 outlet~ w5;
#X obj 662 135 outlet~ w6, f 15;
#X connect 0 0 1 0;
#X connect 0 0 2 0;
#X connect 0 0 3 0;
#X connect 0 0 4 0;
#X connect 0 0 5 0;
#X connect 0 0 6 0;
#X connect 1 0 7 0;
#X connect 2 0 8 0;
#X connect 3 0 9 0;
#X connect 4 0 10 0;
#X connect 5 0 11 0;
#X connect 6 0 12 0;
#X restore 665 243 pd wavetables;
#N canvas 368 23 1024 1107 wavetables 0;
#X obj 296 44 inlet~ freq;
#X obj 59 106 tabosc4~ facet_w1;
#X obj 183 106 tabosc4~ facet_w2;
#X obj 301 106 tabosc4~ facet_w3;
#X obj 424 106 tabosc4~ facet_w4;
#X obj 542 106 tabosc4~ facet_w5;
#X obj 662 106 tabosc4~ facet_w6;
#X obj 59 135 outlet~ w1;
#X obj 183 135 outlet~ w2;
#X obj 301 135 outlet~ w3;
#X obj 424 135 outlet~ w4;
#X obj 542 135 outlet~ w5;
#X obj 662 135 outlet~ w6, f 15;
#X connect 0 0 1 0;
#X connect 0 0 2 0;
#X connect 0 0 3 0;
#X connect 0 0 4 0;
#X connect 0 0 5 0;
#X connect 0 0 6 0;
#X connect 1 0 7 0;
#X connect 2 0 8 0;
#X connect 3 0 9 0;
#X connect 4 0 10 0;
#X connect 5 0 11 0;
#X connect 6 0 12 0;
#X restore 577 243 pd wavetables;
#X obj 572 303 audio_selector~, f 24;
#X obj 486 243 r \$0-facetNum;
#X obj 307 465 xfade~;
#X obj 448 699 xfade~;
#X obj 458 1004 *~;
#X obj 476 57 s \$0-facetSum;
#X obj 356 58 s \$0-facetStatus;
#X obj 935 23 r \$0-facetStatus;
#X obj 812 108 select 2 1 0;
#X msg 812 137 1;
#X msg 846 137 0;
#X obj 812 166 s \$0-correspondence;
#X obj 966 106 select 2 1 0;
#X obj 935 50 t f f;
#X obj 966 170 expr pow($f1/6.0 \, 0.75);
#X msg 1121 170 0;
#X obj 966 204 cadsr~ 155 327 46 1513 0.4 -0.25 -0.55;
#X obj 966 238 throw~ \$0-ampEnv;
#X obj 476 969 catch~ \$0-ampEnv;
#X connect 0 0 5 0;
#X connect 1 0 9 0;
#X connect 2 0 22 0;
#X connect 3 0 21 0;
#X connect 5 0 7 0;
#X connect 6 0 8 1;
#X connect 6 1 8 2;
#X connect 6 2 8 3;
#X connect 6 3 8 4;
#X connect 6 4 8 5;
#X connect 6 5 8 6;
#X connect 7 0 6 0;
#X connect 7 0 11 0;
#X connect 7 0 15 0;
#X connect 7 0 14 0;
#X connect 8 0 18 0;
#X connect 10 0 8 0;
#X connect 11 0 12 1;
#X connect 11 1 12 2;
#X connect 11 2 12 3;
#X connect 11 3 12 4;
#X connect 11 4 12 5;
#X connect 11 5 12 6;
#X connect 12 0 18 1;
#X connect 13 0 12 0;
#X connect 14 0 16 4;
#X connect 14 1 16 5;
#X connect 14 2 16 6;
#X connect 15 3 16 1;
#X connect 15 4 16 2;
#X connect 15 5 16 3;
#X connect 16 0 19 1;
#X connect 17 0 16 0;
#X connect 18 0 19 0;
#X connect 19 0 20 0;
#X connect 20 0 4 0;
#X connect 23 0 29 0;
#X connect 24 0 25 0;
#X connect 24 1 26 0;
#X connect 24 2 26 0;
#X connect 25 0 27 0;
#X connect 26 0 27 0;
#X connect 28 0 30 0;
#X connect 28 1 30 0;
#X connect 28 2 31 0;
#X connect 29 0 24 0;
#X connect 29 1 28 0;
#X connect 30 0 32 0;
#X connect 31 0 32 0;
#X connect 32 0 33 0;
#X connect 34 0 20 1;
