#N canvas 0 23 1024 1107 10;
#X obj 157 28 inlet freq;
#X obj 245 28 inlet facetNum;
#X obj 355 28 inlet facetStatus;
#X obj 476 28 inlet facetSum;
#X obj 418 1390 outlet~ audio;
#X obj 157 54 mtof;
#N canvas 368 23 1024 1107 wavetables 0;
#X obj 296 44 inlet~ freq;
#X obj 59 106 tabosc4~ facet_w1;
#X obj 183 106 tabosc4~ facet_w2;
#X obj 301 106 tabosc4~ facet_w3;
#X obj 424 106 tabosc4~ facet_w4;
#X obj 542 106 tabosc4~ facet_w5;
#X obj 662 106 tabosc4~ facet_w6;
#X obj 59 135 outlet~ w1;
#X obj 183 135 outlet~ w2;
#X obj 301 135 outlet~ w3;
#X obj 424 135 outlet~ w4;
#X obj 542 135 outlet~ w5;
#X obj 662 135 outlet~ w6, f 15;
#X connect 0 0 1 0;
#X connect 0 0 2 0;
#X connect 0 0 3 0;
#X connect 0 0 4 0;
#X connect 0 0 5 0;
#X connect 0 0 6 0;
#X connect 1 0 7 0;
#X connect 2 0 8 0;
#X connect 3 0 9 0;
#X connect 4 0 10 0;
#X connect 5 0 11 0;
#X connect 6 0 12 0;
#X restore 131 623 pd wavetables;
#X obj 188 473 sig~;
#X obj 133 686 audio_selector~;
#N canvas 368 23 1024 1107 attack_wavetables 0;
#X obj 296 44 inlet~ freq;
#X obj 59 135 outlet~ w1;
#X obj 183 135 outlet~ w2;
#X obj 301 135 outlet~ w3;
#X obj 424 135 outlet~ w4;
#X obj 542 135 outlet~ w5;
#X obj 662 135 outlet~ w6;
#X obj 59 106 tabosc4~ facet_w7;
#X obj 183 106 tabosc4~ facet_w8;
#X obj 301 106 tabosc4~ facet_w9;
#X obj 424 106 tabosc4~ facet_w10;
#X obj 542 106 tabosc4~ facet_w11;
#X obj 662 106 tabosc4~ facet_w12;
#X connect 0 0 7 0;
#X connect 0 0 8 0;
#X connect 0 0 9 0;
#X connect 0 0 10 0;
#X connect 0 0 11 0;
#X connect 0 0 12 0;
#X connect 7 0 1 0;
#X connect 8 0 2 0;
#X connect 9 0 3 0;
#X connect 10 0 4 0;
#X connect 11 0 5 0;
#X connect 12 0 6 0;
#X restore 323 623 pd attack_wavetables;
#X obj 322 684 audio_selector~;
#N canvas 368 23 1024 1107 wavetables 0;
#X obj 296 44 inlet~ freq;
#X obj 59 106 tabosc4~ facet_w1;
#X obj 183 106 tabosc4~ facet_w2;
#X obj 301 106 tabosc4~ facet_w3;
#X obj 424 106 tabosc4~ facet_w4;
#X obj 542 106 tabosc4~ facet_w5;
#X obj 662 106 tabosc4~ facet_w6;
#X obj 59 135 outlet~ w1;
#X obj 183 135 outlet~ w2;
#X obj 301 135 outlet~ w3;
#X obj 424 135 outlet~ w4;
#X obj 542 135 outlet~ w5;
#X obj 662 135 outlet~ w6, f 15;
#X connect 0 0 1 0;
#X connect 0 0 2 0;
#X connect 0 0 3 0;
#X connect 0 0 4 0;
#X connect 0 0 5 0;
#X connect 0 0 6 0;
#X connect 1 0 7 0;
#X connect 2 0 8 0;
#X connect 3 0 9 0;
#X connect 4 0 10 0;
#X connect 5 0 11 0;
#X connect 6 0 12 0;
#X restore 640 624 pd wavetables;
#N canvas 368 23 1024 1107 wavetables 0;
#X obj 296 44 inlet~ freq;
#X obj 59 106 tabosc4~ facet_w1;
#X obj 183 106 tabosc4~ facet_w2;
#X obj 301 106 tabosc4~ facet_w3;
#X obj 424 106 tabosc4~ facet_w4;
#X obj 542 106 tabosc4~ facet_w5;
#X obj 662 106 tabosc4~ facet_w6;
#X obj 59 135 outlet~ w1;
#X obj 183 135 outlet~ w2;
#X obj 301 135 outlet~ w3;
#X obj 424 135 outlet~ w4;
#X obj 542 135 outlet~ w5;
#X obj 662 135 outlet~ w6, f 15;
#X connect 0 0 1 0;
#X connect 0 0 2 0;
#X connect 0 0 3 0;
#X connect 0 0 4 0;
#X connect 0 0 5 0;
#X connect 0 0 6 0;
#X connect 1 0 7 0;
#X connect 2 0 8 0;
#X connect 3 0 9 0;
#X connect 4 0 10 0;
#X connect 5 0 11 0;
#X connect 6 0 12 0;
#X restore 552 624 pd wavetables;
#X obj 547 684 audio_selector~, f 24;
#X obj 281 796 xfade~;
#X obj 408 1015 xfade~;
#X obj 418 1320 *~;
#X obj 858 203 select 2 1 0;
#X msg 1082 392 0;
#X obj 990 444 cadsr~ 155 327 46 1513 0.4 -0.25 -0.55;
#X msg 1123 200 1;
#X obj 1123 256 snapshot~;
#X obj 733 28 loadbang;
#X obj 733 80 metro 5;
#X msg 733 53 1;
#X obj 413 1160 lores~;
#X obj 507 1044 expr pow($f1/6.0 \, 0.75);
#X obj 509 1074 * 2400;
#X obj 40 473 random~ 0.3;
#X obj 40 498 *~ 0.6;
#X obj 133 587 +~;
#X obj 544 467 sig~;
#X obj 620 467 sig~;
#X obj 446 473 random~ 0.27;
#X obj 446 499 *~ 0.7;
#X obj 552 588 +~;
#X obj 627 587 +~;
#X text 1069 337 TODO: this may cache the value and behave weirdly.
look at max sketch;
#X obj 1027 286 select 0;
#X msg 592 82 0;
#X floatatom 591 113 5 0 0 0 - - -, f 5;
#X obj 596 884 line~;
#X obj 566 912 snapshot~;
#X obj 1130 309 nbx 5 14 -1e+37 1e+37 0 0 empty empty empty 0 -8 0
10 -262144 -1 -1 0 256;
#X obj 1014 516 snapshot~;
#X obj 1017 552 nbx 5 14 -1e+37 1e+37 0 0 empty empty empty 0 -8 0
10 -262144 -1 -1 0 256;
#X obj 1128 103 cadsr~ 155 327 46 1513 0.4 -0.25 -0.55;
#X obj 983 105 t f f f;
#X obj 1048 139 select 2 1 0;
#X obj 546 994 nbx 5 14 -1e+37 1e+37 0 0 empty empty empty 0 -8 0 10
-262144 -1 -1 0 256;
#X obj 949 158 nbx 5 14 -1e+37 1e+37 0 0 empty empty empty 0 -8 0 10
-262144 -1 -1 0 256;
#X msg 828 240 1 1000;
#X msg 879 240 0 1000;
#X obj 544 442 * 2;
#X obj 620 442 * 1.5;
#X obj 933 392 expr pow($f1/6.0 \, 1.2);
#X obj 1123 224 cadsr~ 884 2500 0 0;
#X connect 0 0 5 0;
#X connect 1 0 8 0;
#X connect 1 0 10 0;
#X connect 1 0 13 0;
#X connect 2 0 47 0;
#X connect 3 0 40 0;
#X connect 5 0 7 0;
#X connect 5 0 53 0;
#X connect 5 0 54 0;
#X connect 6 0 8 1;
#X connect 6 1 8 2;
#X connect 6 2 8 3;
#X connect 6 3 8 4;
#X connect 6 4 8 5;
#X connect 6 5 8 6;
#X connect 7 0 30 1;
#X connect 7 0 9 0;
#X connect 8 0 14 0;
#X connect 9 0 10 1;
#X connect 9 1 10 2;
#X connect 9 2 10 3;
#X connect 9 3 10 4;
#X connect 9 4 10 5;
#X connect 9 5 10 6;
#X connect 10 0 14 1;
#X connect 11 0 13 4;
#X connect 11 1 13 5;
#X connect 11 2 13 6;
#X connect 12 3 13 1;
#X connect 12 4 13 2;
#X connect 12 5 13 3;
#X connect 13 0 15 1;
#X connect 14 0 15 0;
#X connect 15 0 25 0;
#X connect 16 0 4 0;
#X connect 17 0 51 0;
#X connect 17 1 52 0;
#X connect 17 2 52 0;
#X connect 18 0 19 0;
#X connect 19 0 16 1;
#X connect 19 0 44 0;
#X connect 20 0 56 0;
#X connect 21 0 14 2;
#X connect 21 0 43 0;
#X connect 22 0 24 0;
#X connect 22 0 39 0;
#X connect 23 0 42 0;
#X connect 23 0 44 0;
#X connect 23 0 21 0;
#X connect 24 0 23 0;
#X connect 25 0 16 0;
#X connect 26 0 27 0;
#X connect 27 0 25 1;
#X connect 28 0 29 0;
#X connect 29 0 30 0;
#X connect 30 0 6 0;
#X connect 31 0 35 1;
#X connect 32 0 36 1;
#X connect 33 0 34 0;
#X connect 34 0 35 0;
#X connect 34 0 36 0;
#X connect 35 0 12 0;
#X connect 36 0 11 0;
#X connect 38 0 18 0;
#X connect 39 0 40 0;
#X connect 40 0 26 0;
#X connect 40 0 55 0;
#X connect 41 0 42 0;
#X connect 42 0 15 2;
#X connect 42 0 49 0;
#X connect 44 0 45 0;
#X connect 47 0 17 0;
#X connect 47 0 50 0;
#X connect 47 1 38 0;
#X connect 47 2 48 0;
#X connect 48 0 20 0;
#X connect 48 1 20 0;
#X connect 51 0 41 0;
#X connect 52 0 41 0;
#X connect 53 0 31 0;
#X connect 54 0 32 0;
#X connect 55 0 19 0;
#X connect 56 0 21 0;
