#N canvas 302 23 514 542 10;
#X obj 332 36 inlet amount;
#X obj 340 107 hsl 128 15 0 1 0 0 empty empty empty -2 -8 0 10 -262144
-1 -1 0 1;
#X floatatom 349 159 5 0 0 0 - - -, f 5;
#X msg 370 187 1;
#X obj 349 214 -;
#X floatatom 347 249 5 0 0 0 - - -, f 5;
#X floatatom 349 317 5 0 0 0 - - -, f 5;
#X obj 348 287 * -1;
#X obj 160 32 inlet~ wave2;
#X obj 60 32 inlet~ wave1;
#X obj 154 370 *~;
#X obj 101 370 *~;
#X obj 116 442 outlet~ audio;
#X text 351 72 line for smoothing?;
#X connect 0 0 1 0;
#X connect 1 0 2 0;
#X connect 1 0 10 1;
#X connect 2 0 3 0;
#X connect 2 0 4 0;
#X connect 3 0 4 1;
#X connect 4 0 5 0;
#X connect 5 0 7 0;
#X connect 6 0 11 1;
#X connect 7 0 6 0;
#X connect 8 0 10 0;
#X connect 9 0 11 0;
#X connect 10 0 12 0;
#X connect 11 0 12 0;
